%TF.GenerationSoftware,KiCad,Pcbnew,10.0.6*%
%TF.CreationDate,2026-09-12T05:33:41+12:00*%
%TF.ProjectId,knobbybox,6b6e6f62-6279-4626-9f78-2e6b69636164,rev?*%
%TF.SameCoordinates,Original*%
%TF.FileFunction,Paste,Top*%
%TF.FilePolarity,Positive*%
%FSLAX46Y46*%
G04 Gerber Fmt 4.6, Leading zero omitted, Abs format (unit mm)*
G04 Created by KiCad (PCBNEW 10.0.6) date 2026-09-12 05:33:41*
%MOMM*%
%LPD*%
G01*
G04 APERTURE LIST*
G04 Aperture macros list*
%AMRoundRect*
0 Rectangle with rounded corners*
0 $1 Rounding radius*
0 $2 $3 $4 $5 $6 $7 $8 $9 X,Y pos of 4 corners*
0 Add a 4 corners polygon primitive as box body*
4,1,4,$2,$3,$4,$5,$6,$7,$8,$9,$2,$3,0*
0 Add four circle primitives for the rounded corners*
1,1,$1+$1,$2,$3*
1,1,$1+$1,$4,$5*
1,1,$1+$1,$6,$7*
1,1,$1+$1,$8,$9*
0 Add four rect primitives between the rounded corners*
20,1,$1+$1,$2,$3,$4,$5,0*
20,1,$1+$1,$4,$5,$6,$7,0*
20,1,$1+$1,$6,$7,$8,$9,0*
20,1,$1+$1,$8,$9,$2,$3,0*%
G04 Aperture macros list end*
%ADD10RoundRect,0.135000X-0.135000X-0.185000X0.135000X-0.185000X0.135000X0.185000X-0.135000X0.185000X0*%
%ADD11RoundRect,0.135000X0.135000X0.185000X-0.135000X0.185000X-0.135000X-0.185000X0.135000X-0.185000X0*%
%ADD12R,1.500000X1.500000*%
%ADD13RoundRect,0.140000X-0.170000X0.140000X-0.170000X-0.140000X0.170000X-0.140000X0.170000X0.140000X0*%
%ADD14RoundRect,0.140000X0.170000X-0.140000X0.170000X0.140000X-0.170000X0.140000X-0.170000X-0.140000X0*%
%ADD15RoundRect,0.140000X0.140000X0.170000X-0.140000X0.170000X-0.140000X-0.170000X0.140000X-0.170000X0*%
%ADD16RoundRect,0.200000X-0.200000X-0.275000X0.200000X-0.275000X0.200000X0.275000X-0.200000X0.275000X0*%
%ADD17RoundRect,0.250000X-0.350000X0.450000X-0.350000X-0.450000X0.350000X-0.450000X0.350000X0.450000X0*%
%ADD18RoundRect,0.140000X-0.140000X-0.170000X0.140000X-0.170000X0.140000X0.170000X-0.140000X0.170000X0*%
%ADD19RoundRect,0.150000X-0.512500X-0.150000X0.512500X-0.150000X0.512500X0.150000X-0.512500X0.150000X0*%
%ADD20RoundRect,0.200000X0.200000X0.275000X-0.200000X0.275000X-0.200000X-0.275000X0.200000X-0.275000X0*%
%ADD21RoundRect,0.225000X-0.225000X-0.250000X0.225000X-0.250000X0.225000X0.250000X-0.225000X0.250000X0*%
%ADD22RoundRect,0.150000X-0.575000X0.150000X-0.575000X-0.150000X0.575000X-0.150000X0.575000X0.150000X0*%
%ADD23RoundRect,0.075000X-0.650000X0.075000X-0.650000X-0.075000X0.650000X-0.075000X0.650000X0.075000X0*%
%ADD24RoundRect,0.227500X0.227500X-0.227500X0.227500X0.227500X-0.227500X0.227500X-0.227500X-0.227500X0*%
%ADD25RoundRect,0.050000X0.050000X-0.350000X0.050000X0.350000X-0.050000X0.350000X-0.050000X-0.350000X0*%
%ADD26RoundRect,0.050000X0.350000X-0.050000X0.350000X0.050000X-0.350000X0.050000X-0.350000X-0.050000X0*%
%ADD27RoundRect,0.250000X0.450000X-0.262500X0.450000X0.262500X-0.450000X0.262500X-0.450000X-0.262500X0*%
G04 APERTURE END LIST*
D10*
%TO.C,R52*%
X26390000Y-27500000D03*
X27410000Y-27500000D03*
%TD*%
D11*
%TO.C,R53*%
X27410000Y-24200000D03*
X26390000Y-24200000D03*
%TD*%
D12*
%TO.C,USBDEV1*%
X27000000Y-34100000D03*
X19200000Y-34100000D03*
%TD*%
D13*
%TO.C,C39*%
X37900000Y-18720000D03*
X37900000Y-19680000D03*
%TD*%
D14*
%TO.C,C40*%
X29500000Y-26280000D03*
X29500000Y-25320000D03*
%TD*%
%TO.C,C38*%
X31100000Y-30180000D03*
X31100000Y-29220000D03*
%TD*%
D13*
%TO.C,C41*%
X34500000Y-18720000D03*
X34500000Y-19680000D03*
%TD*%
D15*
%TO.C,C29*%
X40080000Y-26000000D03*
X39120000Y-26000000D03*
%TD*%
D16*
%TO.C,R54*%
X19275000Y-38300000D03*
X20925000Y-38300000D03*
%TD*%
D17*
%TO.C,Y1*%
X44150000Y-23300000D03*
X44150000Y-25500000D03*
X45850000Y-25500000D03*
X45850000Y-23300000D03*
%TD*%
D18*
%TO.C,C25*%
X39120000Y-24600000D03*
X40080000Y-24600000D03*
%TD*%
%TO.C,C35*%
X10325000Y-6425000D03*
X11285000Y-6425000D03*
%TD*%
D19*
%TO.C,U2*%
X25000000Y-17600000D03*
X25000000Y-18550000D03*
X25000000Y-19500000D03*
X27275000Y-19500000D03*
X27275000Y-17600000D03*
%TD*%
D13*
%TO.C,C28*%
X33500000Y-18720000D03*
X33500000Y-19680000D03*
%TD*%
D10*
%TO.C,R51*%
X26390000Y-26400000D03*
X27410000Y-26400000D03*
%TD*%
D13*
%TO.C,C37*%
X27300000Y-21420000D03*
X27300000Y-22380000D03*
%TD*%
D14*
%TO.C,C27*%
X33400000Y-30180000D03*
X33400000Y-29220000D03*
%TD*%
D18*
%TO.C,C36*%
X14620000Y-8100000D03*
X15580000Y-8100000D03*
%TD*%
%TO.C,C2*%
X-935000Y-285000D03*
X25000Y-285000D03*
%TD*%
D12*
%TO.C,RESET1*%
X37700000Y-15100000D03*
X29900000Y-15100000D03*
%TD*%
D10*
%TO.C,R23*%
X30590000Y-19600000D03*
X31610000Y-19600000D03*
%TD*%
D20*
%TO.C,R29*%
X27925000Y-15100000D03*
X26275000Y-15100000D03*
%TD*%
D21*
%TO.C,C5*%
X44225000Y-27400000D03*
X45775000Y-27400000D03*
%TD*%
D11*
%TO.C,R50*%
X27410000Y-25300000D03*
X26390000Y-25300000D03*
%TD*%
D18*
%TO.C,C34*%
X10325000Y-4455000D03*
X11285000Y-4455000D03*
%TD*%
D15*
%TO.C,C26*%
X30180000Y-18400000D03*
X29220000Y-18400000D03*
%TD*%
D22*
%TO.C,J1*%
X23945000Y-23250000D03*
X23945000Y-24050000D03*
D23*
X23945000Y-25250000D03*
X23945000Y-26250000D03*
X23945000Y-26750000D03*
X23945000Y-27750000D03*
D22*
X23945000Y-28950000D03*
X23945000Y-29750000D03*
X23945000Y-29750000D03*
X23945000Y-28950000D03*
D23*
X23945000Y-28250000D03*
X23945000Y-27250000D03*
X23945000Y-25750000D03*
X23945000Y-24750000D03*
D22*
X23945000Y-24050000D03*
X23945000Y-23250000D03*
%TD*%
D21*
%TO.C,C6*%
X44225000Y-21400000D03*
X45775000Y-21400000D03*
%TD*%
D24*
%TO.C,U1*%
X33070000Y-25542500D03*
X34200000Y-25542500D03*
X35330000Y-25542500D03*
X33070000Y-24412500D03*
X34200000Y-24412500D03*
X35330000Y-24412500D03*
X33070000Y-23282500D03*
X34200000Y-23282500D03*
X35330000Y-23282500D03*
D25*
X31400000Y-27862500D03*
X31800000Y-27862500D03*
X32200000Y-27862500D03*
X32600000Y-27862500D03*
X33000000Y-27862500D03*
X33400000Y-27862500D03*
X33800000Y-27862500D03*
X34200000Y-27862500D03*
X34600000Y-27862500D03*
X35000000Y-27862500D03*
X35400000Y-27862500D03*
X35800000Y-27862500D03*
X36200000Y-27862500D03*
X36600000Y-27862500D03*
X37000000Y-27862500D03*
D26*
X37650000Y-27212500D03*
X37650000Y-26812500D03*
X37650000Y-26412500D03*
X37650000Y-26012500D03*
X37650000Y-25612500D03*
X37650000Y-25212500D03*
X37650000Y-24812500D03*
X37650000Y-24412500D03*
X37650000Y-24012500D03*
X37650000Y-23612500D03*
X37650000Y-23212500D03*
X37650000Y-22812500D03*
X37650000Y-22412500D03*
X37650000Y-22012500D03*
X37650000Y-21612500D03*
D25*
X37000000Y-20962500D03*
X36600000Y-20962500D03*
X36200000Y-20962500D03*
X35800000Y-20962500D03*
X35400000Y-20962500D03*
X35000000Y-20962500D03*
X34600000Y-20962500D03*
X34200000Y-20962500D03*
X33800000Y-20962500D03*
X33400000Y-20962500D03*
X33000000Y-20962500D03*
X32600000Y-20962500D03*
X32200000Y-20962500D03*
X31800000Y-20962500D03*
X31400000Y-20962500D03*
D26*
X30750000Y-21612500D03*
X30750000Y-22012500D03*
X30750000Y-22412500D03*
X30750000Y-22812500D03*
X30750000Y-23212500D03*
X30750000Y-23612500D03*
X30750000Y-24012500D03*
X30750000Y-24412500D03*
X30750000Y-24812500D03*
X30750000Y-25212500D03*
X30750000Y-25612500D03*
X30750000Y-26012500D03*
X30750000Y-26412500D03*
X30750000Y-26812500D03*
X30750000Y-27212500D03*
%TD*%
D16*
%TO.C,R49*%
X40775000Y-23300000D03*
X42425000Y-23300000D03*
%TD*%
D27*
%TO.C,L1*%
X28900000Y-23312500D03*
X28900000Y-21487500D03*
%TD*%
D18*
%TO.C,C24*%
X7455000Y-2485000D03*
X8415000Y-2485000D03*
%TD*%
M02*
