M48
; DRILL file KiCad 10.0.6 date 2026-09-12T05:33:41
; FORMAT={-:-/ absolute / inch / decimal}
; #@! TF.CreationDate,2026-09-12T05:33:41+12:00
; #@! TF.GenerationSoftware,Kicad,Pcbnew,10.0.6
; #@! TF.FileFunction,Plated,1,2,PTH
FMAT,2
INCH
; #@! TA.AperFunction,Plated,PTH,ViaDrill
T1C0.0118
; #@! TA.AperFunction,Plated,PTH,ComponentDrill
T2C0.0236
; #@! TA.AperFunction,Plated,PTH,ComponentDrill
T3C0.0394
; #@! TA.AperFunction,Plated,PTH,ComponentDrill
T4C0.0433
; #@! TA.AperFunction,Plated,PTH,ComponentDrill
T5C0.1236
%
G90
G05
T1
X0.8622Y-0.9016
X0.8622Y-1.185
X0.9409Y-0.7441
X0.9646Y-0.8819
X0.9646Y-1.2047
X1.0354Y-0.7244
X1.0984Y-0.815
X1.1063Y-0.9528
X1.1102Y-1.0827
X1.1142Y-0.7205
X1.1339Y-1.8189
X1.1654Y-0.7559
X1.1693Y-1.0669
X1.1811Y-0.8189
X1.2244Y-1.2205
X1.2441Y-0.8583
X1.2441Y-0.8976
X1.2441Y-0.9685
X1.248Y-1.0591
X1.25Y-0.935
X1.2913Y-0.7598
X1.315Y-1.2205
X1.3268Y-0.874
X1.3268Y-1.0512
X1.3543Y-0.8583
X1.3858Y-0.7598
X1.437Y-0.9606
X1.4488Y-0.8583
X1.4528Y-1.0079
X1.5197Y-0.6417
X1.5197Y-0.7559
X1.5354Y-0.8819
X1.5472Y-0.6063
X1.5551Y-0.9409
X1.5551Y-1.0512
X1.5709Y-0.7205
X1.5748Y-0.6339
X1.5748Y-0.8189
X1.5906Y-0.8622
X1.6063Y-0.748
T3
X1.626Y-0.5984
X1.626Y-0.6984
X1.626Y-0.7984
X1.7795Y-1.4378
X1.7795Y-1.5559
X1.937Y-1.5559
X2.0276Y-1.1898
X2.0276Y-1.8039
X2.0472Y-1.2693
X2.126Y-1.7717
X2.1457Y-1.1898
X2.3567Y-1.6445
X2.3937Y-1.4378
X2.3937Y-1.5559
X2.9213Y-1.4378
X2.9213Y-1.5559
X3.0787Y-1.5559
X3.1693Y-1.1898
X3.1693Y-1.8039
X3.189Y-1.2693
X3.2677Y-1.7717
X3.2874Y-1.1898
X3.4984Y-1.6445
X3.5354Y-1.4378
X3.5354Y-1.5559
T4
X0.8843Y-1.7426
X0.8858Y-1.841
X0.8858Y-2.4119
X0.9843Y-1.7426
X0.9843Y-2.4119
X1.0827Y-1.841
X1.0827Y-2.4119
X1.0843Y-1.7426
X4.2307Y-1.7426
X4.2323Y-1.841
X4.2323Y-2.4119
X4.3307Y-1.7426
X4.3307Y-2.4119
X4.4291Y-1.841
X4.4291Y-2.4119
X4.4307Y-1.7426
T5
X0.7677Y-2.1166
X1.2008Y-2.1166
X4.1142Y-2.1166
X4.5472Y-2.1166
T2
G00X0.7539Y-0.8732
M15
G01X0.7303Y-0.8732
M16
G05
G00X0.7539Y-1.2134
M15
G01X0.7303Y-1.2134
M16
G05
G00X0.9283Y-0.8732
M15
G01X0.885Y-0.8732
M16
G05
G00X0.9283Y-1.2134
M15
G01X0.885Y-1.2134
M16
G05
M30
