%TF.GenerationSoftware,KiCad,Pcbnew,10.0.6*%
%TF.CreationDate,2026-09-12T05:33:41+12:00*%
%TF.ProjectId,knobbybox,6b6e6f62-6279-4626-9f78-2e6b69636164,rev?*%
%TF.SameCoordinates,Original*%
%TF.FileFunction,Legend,Top*%
%TF.FilePolarity,Positive*%
%FSLAX46Y46*%
G04 Gerber Fmt 4.6, Leading zero omitted, Abs format (unit mm)*
G04 Created by KiCad (PCBNEW 10.0.6) date 2026-09-12 05:33:41*
%MOMM*%
%LPD*%
G01*
G04 APERTURE LIST*
G04 Aperture macros list*
%AMRoundRect*
0 Rectangle with rounded corners*
0 $1 Rounding radius*
0 $2 $3 $4 $5 $6 $7 $8 $9 X,Y pos of 4 corners*
0 Add a 4 corners polygon primitive as box body*
4,1,4,$2,$3,$4,$5,$6,$7,$8,$9,$2,$3,0*
0 Add four circle primitives for the rounded corners*
1,1,$1+$1,$2,$3*
1,1,$1+$1,$4,$5*
1,1,$1+$1,$6,$7*
1,1,$1+$1,$8,$9*
0 Add four rect primitives between the rounded corners*
20,1,$1+$1,$2,$3,$4,$5,0*
20,1,$1+$1,$4,$5,$6,$7,0*
20,1,$1+$1,$6,$7,$8,$9,0*
20,1,$1+$1,$8,$9,$2,$3,0*%
G04 Aperture macros list end*
%ADD10C,0.037500*%
%ADD11C,0.150000*%
%ADD12C,0.120000*%
%ADD13C,0.100000*%
%ADD14C,0.200000*%
%ADD15RoundRect,0.135000X-0.135000X-0.185000X0.135000X-0.185000X0.135000X0.185000X-0.135000X0.185000X0*%
%ADD16RoundRect,0.135000X0.135000X0.185000X-0.135000X0.185000X-0.135000X-0.185000X0.135000X-0.185000X0*%
%ADD17R,1.500000X1.500000*%
%ADD18RoundRect,0.140000X-0.170000X0.140000X-0.170000X-0.140000X0.170000X-0.140000X0.170000X0.140000X0*%
%ADD19C,1.500000*%
%ADD20RoundRect,0.140000X0.170000X-0.140000X0.170000X0.140000X-0.170000X0.140000X-0.170000X-0.140000X0*%
%ADD21RoundRect,0.140000X0.140000X0.170000X-0.140000X0.170000X-0.140000X-0.170000X0.140000X-0.170000X0*%
%ADD22RoundRect,0.200000X-0.200000X-0.275000X0.200000X-0.275000X0.200000X0.275000X-0.200000X0.275000X0*%
%ADD23RoundRect,0.250000X-0.350000X0.450000X-0.350000X-0.450000X0.350000X-0.450000X0.350000X0.450000X0*%
%ADD24RoundRect,0.140000X-0.140000X-0.170000X0.140000X-0.170000X0.140000X0.170000X-0.140000X0.170000X0*%
%ADD25RoundRect,0.150000X-0.512500X-0.150000X0.512500X-0.150000X0.512500X0.150000X-0.512500X0.150000X0*%
%ADD26RoundRect,0.200000X0.200000X0.275000X-0.200000X0.275000X-0.200000X-0.275000X0.200000X-0.275000X0*%
%ADD27C,1.650000*%
%ADD28C,4.708000*%
%ADD29RoundRect,0.225000X-0.225000X-0.250000X0.225000X-0.250000X0.225000X0.250000X-0.225000X0.250000X0*%
%ADD30C,0.650000*%
%ADD31RoundRect,0.150000X-0.575000X0.150000X-0.575000X-0.150000X0.575000X-0.150000X0.575000X0.150000X0*%
%ADD32RoundRect,0.075000X-0.650000X0.075000X-0.650000X-0.075000X0.650000X-0.075000X0.650000X0.075000X0*%
%ADD33O,2.100000X1.000000*%
%ADD34O,1.600000X1.000000*%
%ADD35R,1.700000X1.700000*%
%ADD36C,1.700000*%
%ADD37RoundRect,0.050000X0.050000X-0.350000X0.050000X0.350000X-0.050000X0.350000X-0.050000X-0.350000X0*%
%ADD38RoundRect,0.050000X0.350000X-0.050000X0.350000X0.050000X-0.350000X0.050000X-0.350000X-0.050000X0*%
%ADD39R,3.400000X3.400000*%
%ADD40RoundRect,0.250000X0.450000X-0.262500X0.450000X0.262500X-0.450000X0.262500X-0.450000X-0.262500X0*%
G04 APERTURE END LIST*
D10*
X26707143Y-26466835D02*
X26607143Y-26323978D01*
X26535714Y-26466835D02*
X26535714Y-26166835D01*
X26535714Y-26166835D02*
X26650000Y-26166835D01*
X26650000Y-26166835D02*
X26678571Y-26181121D01*
X26678571Y-26181121D02*
X26692857Y-26195407D01*
X26692857Y-26195407D02*
X26707143Y-26223978D01*
X26707143Y-26223978D02*
X26707143Y-26266835D01*
X26707143Y-26266835D02*
X26692857Y-26295407D01*
X26692857Y-26295407D02*
X26678571Y-26309692D01*
X26678571Y-26309692D02*
X26650000Y-26323978D01*
X26650000Y-26323978D02*
X26535714Y-26323978D01*
X26978571Y-26166835D02*
X26835714Y-26166835D01*
X26835714Y-26166835D02*
X26821428Y-26309692D01*
X26821428Y-26309692D02*
X26835714Y-26295407D01*
X26835714Y-26295407D02*
X26864286Y-26281121D01*
X26864286Y-26281121D02*
X26935714Y-26281121D01*
X26935714Y-26281121D02*
X26964286Y-26295407D01*
X26964286Y-26295407D02*
X26978571Y-26309692D01*
X26978571Y-26309692D02*
X26992857Y-26338264D01*
X26992857Y-26338264D02*
X26992857Y-26409692D01*
X26992857Y-26409692D02*
X26978571Y-26438264D01*
X26978571Y-26438264D02*
X26964286Y-26452550D01*
X26964286Y-26452550D02*
X26935714Y-26466835D01*
X26935714Y-26466835D02*
X26864286Y-26466835D01*
X26864286Y-26466835D02*
X26835714Y-26452550D01*
X26835714Y-26452550D02*
X26821428Y-26438264D01*
X27107142Y-26195407D02*
X27121428Y-26181121D01*
X27121428Y-26181121D02*
X27150000Y-26166835D01*
X27150000Y-26166835D02*
X27221428Y-26166835D01*
X27221428Y-26166835D02*
X27250000Y-26181121D01*
X27250000Y-26181121D02*
X27264285Y-26195407D01*
X27264285Y-26195407D02*
X27278571Y-26223978D01*
X27278571Y-26223978D02*
X27278571Y-26252550D01*
X27278571Y-26252550D02*
X27264285Y-26295407D01*
X27264285Y-26295407D02*
X27092857Y-26466835D01*
X27092857Y-26466835D02*
X27278571Y-26466835D01*
X26707143Y-25506835D02*
X26607143Y-25363978D01*
X26535714Y-25506835D02*
X26535714Y-25206835D01*
X26535714Y-25206835D02*
X26650000Y-25206835D01*
X26650000Y-25206835D02*
X26678571Y-25221121D01*
X26678571Y-25221121D02*
X26692857Y-25235407D01*
X26692857Y-25235407D02*
X26707143Y-25263978D01*
X26707143Y-25263978D02*
X26707143Y-25306835D01*
X26707143Y-25306835D02*
X26692857Y-25335407D01*
X26692857Y-25335407D02*
X26678571Y-25349692D01*
X26678571Y-25349692D02*
X26650000Y-25363978D01*
X26650000Y-25363978D02*
X26535714Y-25363978D01*
X26978571Y-25206835D02*
X26835714Y-25206835D01*
X26835714Y-25206835D02*
X26821428Y-25349692D01*
X26821428Y-25349692D02*
X26835714Y-25335407D01*
X26835714Y-25335407D02*
X26864286Y-25321121D01*
X26864286Y-25321121D02*
X26935714Y-25321121D01*
X26935714Y-25321121D02*
X26964286Y-25335407D01*
X26964286Y-25335407D02*
X26978571Y-25349692D01*
X26978571Y-25349692D02*
X26992857Y-25378264D01*
X26992857Y-25378264D02*
X26992857Y-25449692D01*
X26992857Y-25449692D02*
X26978571Y-25478264D01*
X26978571Y-25478264D02*
X26964286Y-25492550D01*
X26964286Y-25492550D02*
X26935714Y-25506835D01*
X26935714Y-25506835D02*
X26864286Y-25506835D01*
X26864286Y-25506835D02*
X26835714Y-25492550D01*
X26835714Y-25492550D02*
X26821428Y-25478264D01*
X27092857Y-25206835D02*
X27278571Y-25206835D01*
X27278571Y-25206835D02*
X27178571Y-25321121D01*
X27178571Y-25321121D02*
X27221428Y-25321121D01*
X27221428Y-25321121D02*
X27250000Y-25335407D01*
X27250000Y-25335407D02*
X27264285Y-25349692D01*
X27264285Y-25349692D02*
X27278571Y-25378264D01*
X27278571Y-25378264D02*
X27278571Y-25449692D01*
X27278571Y-25449692D02*
X27264285Y-25478264D01*
X27264285Y-25478264D02*
X27250000Y-25492550D01*
X27250000Y-25492550D02*
X27221428Y-25506835D01*
X27221428Y-25506835D02*
X27135714Y-25506835D01*
X27135714Y-25506835D02*
X27107142Y-25492550D01*
X27107142Y-25492550D02*
X27092857Y-25478264D01*
D11*
X19980952Y-36154819D02*
X19980952Y-36964342D01*
X19980952Y-36964342D02*
X20028571Y-37059580D01*
X20028571Y-37059580D02*
X20076190Y-37107200D01*
X20076190Y-37107200D02*
X20171428Y-37154819D01*
X20171428Y-37154819D02*
X20361904Y-37154819D01*
X20361904Y-37154819D02*
X20457142Y-37107200D01*
X20457142Y-37107200D02*
X20504761Y-37059580D01*
X20504761Y-37059580D02*
X20552380Y-36964342D01*
X20552380Y-36964342D02*
X20552380Y-36154819D01*
X20980952Y-37107200D02*
X21123809Y-37154819D01*
X21123809Y-37154819D02*
X21361904Y-37154819D01*
X21361904Y-37154819D02*
X21457142Y-37107200D01*
X21457142Y-37107200D02*
X21504761Y-37059580D01*
X21504761Y-37059580D02*
X21552380Y-36964342D01*
X21552380Y-36964342D02*
X21552380Y-36869104D01*
X21552380Y-36869104D02*
X21504761Y-36773866D01*
X21504761Y-36773866D02*
X21457142Y-36726247D01*
X21457142Y-36726247D02*
X21361904Y-36678628D01*
X21361904Y-36678628D02*
X21171428Y-36631009D01*
X21171428Y-36631009D02*
X21076190Y-36583390D01*
X21076190Y-36583390D02*
X21028571Y-36535771D01*
X21028571Y-36535771D02*
X20980952Y-36440533D01*
X20980952Y-36440533D02*
X20980952Y-36345295D01*
X20980952Y-36345295D02*
X21028571Y-36250057D01*
X21028571Y-36250057D02*
X21076190Y-36202438D01*
X21076190Y-36202438D02*
X21171428Y-36154819D01*
X21171428Y-36154819D02*
X21409523Y-36154819D01*
X21409523Y-36154819D02*
X21552380Y-36202438D01*
X22314285Y-36631009D02*
X22457142Y-36678628D01*
X22457142Y-36678628D02*
X22504761Y-36726247D01*
X22504761Y-36726247D02*
X22552380Y-36821485D01*
X22552380Y-36821485D02*
X22552380Y-36964342D01*
X22552380Y-36964342D02*
X22504761Y-37059580D01*
X22504761Y-37059580D02*
X22457142Y-37107200D01*
X22457142Y-37107200D02*
X22361904Y-37154819D01*
X22361904Y-37154819D02*
X21980952Y-37154819D01*
X21980952Y-37154819D02*
X21980952Y-36154819D01*
X21980952Y-36154819D02*
X22314285Y-36154819D01*
X22314285Y-36154819D02*
X22409523Y-36202438D01*
X22409523Y-36202438D02*
X22457142Y-36250057D01*
X22457142Y-36250057D02*
X22504761Y-36345295D01*
X22504761Y-36345295D02*
X22504761Y-36440533D01*
X22504761Y-36440533D02*
X22457142Y-36535771D01*
X22457142Y-36535771D02*
X22409523Y-36583390D01*
X22409523Y-36583390D02*
X22314285Y-36631009D01*
X22314285Y-36631009D02*
X21980952Y-36631009D01*
X22980952Y-37154819D02*
X22980952Y-36154819D01*
X22980952Y-36154819D02*
X23219047Y-36154819D01*
X23219047Y-36154819D02*
X23361904Y-36202438D01*
X23361904Y-36202438D02*
X23457142Y-36297676D01*
X23457142Y-36297676D02*
X23504761Y-36392914D01*
X23504761Y-36392914D02*
X23552380Y-36583390D01*
X23552380Y-36583390D02*
X23552380Y-36726247D01*
X23552380Y-36726247D02*
X23504761Y-36916723D01*
X23504761Y-36916723D02*
X23457142Y-37011961D01*
X23457142Y-37011961D02*
X23361904Y-37107200D01*
X23361904Y-37107200D02*
X23219047Y-37154819D01*
X23219047Y-37154819D02*
X22980952Y-37154819D01*
X23980952Y-36631009D02*
X24314285Y-36631009D01*
X24457142Y-37154819D02*
X23980952Y-37154819D01*
X23980952Y-37154819D02*
X23980952Y-36154819D01*
X23980952Y-36154819D02*
X24457142Y-36154819D01*
X24742857Y-36154819D02*
X25076190Y-37154819D01*
X25076190Y-37154819D02*
X25409523Y-36154819D01*
X26266666Y-37154819D02*
X25695238Y-37154819D01*
X25980952Y-37154819D02*
X25980952Y-36154819D01*
X25980952Y-36154819D02*
X25885714Y-36297676D01*
X25885714Y-36297676D02*
X25790476Y-36392914D01*
X25790476Y-36392914D02*
X25695238Y-36440533D01*
D10*
X39168264Y-19392856D02*
X39182550Y-19407142D01*
X39182550Y-19407142D02*
X39196835Y-19449999D01*
X39196835Y-19449999D02*
X39196835Y-19478571D01*
X39196835Y-19478571D02*
X39182550Y-19521428D01*
X39182550Y-19521428D02*
X39153978Y-19549999D01*
X39153978Y-19549999D02*
X39125407Y-19564285D01*
X39125407Y-19564285D02*
X39068264Y-19578571D01*
X39068264Y-19578571D02*
X39025407Y-19578571D01*
X39025407Y-19578571D02*
X38968264Y-19564285D01*
X38968264Y-19564285D02*
X38939692Y-19549999D01*
X38939692Y-19549999D02*
X38911121Y-19521428D01*
X38911121Y-19521428D02*
X38896835Y-19478571D01*
X38896835Y-19478571D02*
X38896835Y-19449999D01*
X38896835Y-19449999D02*
X38911121Y-19407142D01*
X38911121Y-19407142D02*
X38925407Y-19392856D01*
X38896835Y-19292856D02*
X38896835Y-19107142D01*
X38896835Y-19107142D02*
X39011121Y-19207142D01*
X39011121Y-19207142D02*
X39011121Y-19164285D01*
X39011121Y-19164285D02*
X39025407Y-19135714D01*
X39025407Y-19135714D02*
X39039692Y-19121428D01*
X39039692Y-19121428D02*
X39068264Y-19107142D01*
X39068264Y-19107142D02*
X39139692Y-19107142D01*
X39139692Y-19107142D02*
X39168264Y-19121428D01*
X39168264Y-19121428D02*
X39182550Y-19135714D01*
X39182550Y-19135714D02*
X39196835Y-19164285D01*
X39196835Y-19164285D02*
X39196835Y-19249999D01*
X39196835Y-19249999D02*
X39182550Y-19278571D01*
X39182550Y-19278571D02*
X39168264Y-19292856D01*
X39196835Y-18964285D02*
X39196835Y-18907142D01*
X39196835Y-18907142D02*
X39182550Y-18878571D01*
X39182550Y-18878571D02*
X39168264Y-18864285D01*
X39168264Y-18864285D02*
X39125407Y-18835714D01*
X39125407Y-18835714D02*
X39068264Y-18821428D01*
X39068264Y-18821428D02*
X38953978Y-18821428D01*
X38953978Y-18821428D02*
X38925407Y-18835714D01*
X38925407Y-18835714D02*
X38911121Y-18850000D01*
X38911121Y-18850000D02*
X38896835Y-18878571D01*
X38896835Y-18878571D02*
X38896835Y-18935714D01*
X38896835Y-18935714D02*
X38911121Y-18964285D01*
X38911121Y-18964285D02*
X38925407Y-18978571D01*
X38925407Y-18978571D02*
X38953978Y-18992857D01*
X38953978Y-18992857D02*
X39025407Y-18992857D01*
X39025407Y-18992857D02*
X39053978Y-18978571D01*
X39053978Y-18978571D02*
X39068264Y-18964285D01*
X39068264Y-18964285D02*
X39082550Y-18935714D01*
X39082550Y-18935714D02*
X39082550Y-18878571D01*
X39082550Y-18878571D02*
X39068264Y-18850000D01*
X39068264Y-18850000D02*
X39053978Y-18835714D01*
X39053978Y-18835714D02*
X39025407Y-18821428D01*
X81771428Y-38142550D02*
X81814286Y-38156835D01*
X81814286Y-38156835D02*
X81885714Y-38156835D01*
X81885714Y-38156835D02*
X81914286Y-38142550D01*
X81914286Y-38142550D02*
X81928571Y-38128264D01*
X81928571Y-38128264D02*
X81942857Y-38099692D01*
X81942857Y-38099692D02*
X81942857Y-38071121D01*
X81942857Y-38071121D02*
X81928571Y-38042550D01*
X81928571Y-38042550D02*
X81914286Y-38028264D01*
X81914286Y-38028264D02*
X81885714Y-38013978D01*
X81885714Y-38013978D02*
X81828571Y-37999692D01*
X81828571Y-37999692D02*
X81800000Y-37985407D01*
X81800000Y-37985407D02*
X81785714Y-37971121D01*
X81785714Y-37971121D02*
X81771428Y-37942550D01*
X81771428Y-37942550D02*
X81771428Y-37913978D01*
X81771428Y-37913978D02*
X81785714Y-37885407D01*
X81785714Y-37885407D02*
X81800000Y-37871121D01*
X81800000Y-37871121D02*
X81828571Y-37856835D01*
X81828571Y-37856835D02*
X81900000Y-37856835D01*
X81900000Y-37856835D02*
X81942857Y-37871121D01*
X82200000Y-37956835D02*
X82200000Y-38156835D01*
X82128571Y-37842550D02*
X82057142Y-38056835D01*
X82057142Y-38056835D02*
X82242857Y-38056835D01*
X28448264Y-25992856D02*
X28462550Y-26007142D01*
X28462550Y-26007142D02*
X28476835Y-26049999D01*
X28476835Y-26049999D02*
X28476835Y-26078571D01*
X28476835Y-26078571D02*
X28462550Y-26121428D01*
X28462550Y-26121428D02*
X28433978Y-26149999D01*
X28433978Y-26149999D02*
X28405407Y-26164285D01*
X28405407Y-26164285D02*
X28348264Y-26178571D01*
X28348264Y-26178571D02*
X28305407Y-26178571D01*
X28305407Y-26178571D02*
X28248264Y-26164285D01*
X28248264Y-26164285D02*
X28219692Y-26149999D01*
X28219692Y-26149999D02*
X28191121Y-26121428D01*
X28191121Y-26121428D02*
X28176835Y-26078571D01*
X28176835Y-26078571D02*
X28176835Y-26049999D01*
X28176835Y-26049999D02*
X28191121Y-26007142D01*
X28191121Y-26007142D02*
X28205407Y-25992856D01*
X28276835Y-25735714D02*
X28476835Y-25735714D01*
X28162550Y-25807142D02*
X28376835Y-25878571D01*
X28376835Y-25878571D02*
X28376835Y-25692856D01*
X28176835Y-25521428D02*
X28176835Y-25492857D01*
X28176835Y-25492857D02*
X28191121Y-25464285D01*
X28191121Y-25464285D02*
X28205407Y-25450000D01*
X28205407Y-25450000D02*
X28233978Y-25435714D01*
X28233978Y-25435714D02*
X28291121Y-25421428D01*
X28291121Y-25421428D02*
X28362550Y-25421428D01*
X28362550Y-25421428D02*
X28419692Y-25435714D01*
X28419692Y-25435714D02*
X28448264Y-25450000D01*
X28448264Y-25450000D02*
X28462550Y-25464285D01*
X28462550Y-25464285D02*
X28476835Y-25492857D01*
X28476835Y-25492857D02*
X28476835Y-25521428D01*
X28476835Y-25521428D02*
X28462550Y-25550000D01*
X28462550Y-25550000D02*
X28448264Y-25564285D01*
X28448264Y-25564285D02*
X28419692Y-25578571D01*
X28419692Y-25578571D02*
X28362550Y-25592857D01*
X28362550Y-25592857D02*
X28291121Y-25592857D01*
X28291121Y-25592857D02*
X28233978Y-25578571D01*
X28233978Y-25578571D02*
X28205407Y-25564285D01*
X28205407Y-25564285D02*
X28191121Y-25550000D01*
X28191121Y-25550000D02*
X28176835Y-25521428D01*
X30048264Y-29892856D02*
X30062550Y-29907142D01*
X30062550Y-29907142D02*
X30076835Y-29949999D01*
X30076835Y-29949999D02*
X30076835Y-29978571D01*
X30076835Y-29978571D02*
X30062550Y-30021428D01*
X30062550Y-30021428D02*
X30033978Y-30049999D01*
X30033978Y-30049999D02*
X30005407Y-30064285D01*
X30005407Y-30064285D02*
X29948264Y-30078571D01*
X29948264Y-30078571D02*
X29905407Y-30078571D01*
X29905407Y-30078571D02*
X29848264Y-30064285D01*
X29848264Y-30064285D02*
X29819692Y-30049999D01*
X29819692Y-30049999D02*
X29791121Y-30021428D01*
X29791121Y-30021428D02*
X29776835Y-29978571D01*
X29776835Y-29978571D02*
X29776835Y-29949999D01*
X29776835Y-29949999D02*
X29791121Y-29907142D01*
X29791121Y-29907142D02*
X29805407Y-29892856D01*
X29776835Y-29792856D02*
X29776835Y-29607142D01*
X29776835Y-29607142D02*
X29891121Y-29707142D01*
X29891121Y-29707142D02*
X29891121Y-29664285D01*
X29891121Y-29664285D02*
X29905407Y-29635714D01*
X29905407Y-29635714D02*
X29919692Y-29621428D01*
X29919692Y-29621428D02*
X29948264Y-29607142D01*
X29948264Y-29607142D02*
X30019692Y-29607142D01*
X30019692Y-29607142D02*
X30048264Y-29621428D01*
X30048264Y-29621428D02*
X30062550Y-29635714D01*
X30062550Y-29635714D02*
X30076835Y-29664285D01*
X30076835Y-29664285D02*
X30076835Y-29749999D01*
X30076835Y-29749999D02*
X30062550Y-29778571D01*
X30062550Y-29778571D02*
X30048264Y-29792856D01*
X29905407Y-29435714D02*
X29891121Y-29464285D01*
X29891121Y-29464285D02*
X29876835Y-29478571D01*
X29876835Y-29478571D02*
X29848264Y-29492857D01*
X29848264Y-29492857D02*
X29833978Y-29492857D01*
X29833978Y-29492857D02*
X29805407Y-29478571D01*
X29805407Y-29478571D02*
X29791121Y-29464285D01*
X29791121Y-29464285D02*
X29776835Y-29435714D01*
X29776835Y-29435714D02*
X29776835Y-29378571D01*
X29776835Y-29378571D02*
X29791121Y-29350000D01*
X29791121Y-29350000D02*
X29805407Y-29335714D01*
X29805407Y-29335714D02*
X29833978Y-29321428D01*
X29833978Y-29321428D02*
X29848264Y-29321428D01*
X29848264Y-29321428D02*
X29876835Y-29335714D01*
X29876835Y-29335714D02*
X29891121Y-29350000D01*
X29891121Y-29350000D02*
X29905407Y-29378571D01*
X29905407Y-29378571D02*
X29905407Y-29435714D01*
X29905407Y-29435714D02*
X29919692Y-29464285D01*
X29919692Y-29464285D02*
X29933978Y-29478571D01*
X29933978Y-29478571D02*
X29962550Y-29492857D01*
X29962550Y-29492857D02*
X30019692Y-29492857D01*
X30019692Y-29492857D02*
X30048264Y-29478571D01*
X30048264Y-29478571D02*
X30062550Y-29464285D01*
X30062550Y-29464285D02*
X30076835Y-29435714D01*
X30076835Y-29435714D02*
X30076835Y-29378571D01*
X30076835Y-29378571D02*
X30062550Y-29350000D01*
X30062550Y-29350000D02*
X30048264Y-29335714D01*
X30048264Y-29335714D02*
X30019692Y-29321428D01*
X30019692Y-29321428D02*
X29962550Y-29321428D01*
X29962550Y-29321428D02*
X29933978Y-29335714D01*
X29933978Y-29335714D02*
X29919692Y-29350000D01*
X29919692Y-29350000D02*
X29905407Y-29378571D01*
X35768264Y-19392856D02*
X35782550Y-19407142D01*
X35782550Y-19407142D02*
X35796835Y-19449999D01*
X35796835Y-19449999D02*
X35796835Y-19478571D01*
X35796835Y-19478571D02*
X35782550Y-19521428D01*
X35782550Y-19521428D02*
X35753978Y-19549999D01*
X35753978Y-19549999D02*
X35725407Y-19564285D01*
X35725407Y-19564285D02*
X35668264Y-19578571D01*
X35668264Y-19578571D02*
X35625407Y-19578571D01*
X35625407Y-19578571D02*
X35568264Y-19564285D01*
X35568264Y-19564285D02*
X35539692Y-19549999D01*
X35539692Y-19549999D02*
X35511121Y-19521428D01*
X35511121Y-19521428D02*
X35496835Y-19478571D01*
X35496835Y-19478571D02*
X35496835Y-19449999D01*
X35496835Y-19449999D02*
X35511121Y-19407142D01*
X35511121Y-19407142D02*
X35525407Y-19392856D01*
X35596835Y-19135714D02*
X35796835Y-19135714D01*
X35482550Y-19207142D02*
X35696835Y-19278571D01*
X35696835Y-19278571D02*
X35696835Y-19092856D01*
X35796835Y-18821428D02*
X35796835Y-18992857D01*
X35796835Y-18907142D02*
X35496835Y-18907142D01*
X35496835Y-18907142D02*
X35539692Y-18935714D01*
X35539692Y-18935714D02*
X35568264Y-18964285D01*
X35568264Y-18964285D02*
X35582550Y-18992857D01*
X39407143Y-27268264D02*
X39392857Y-27282550D01*
X39392857Y-27282550D02*
X39350000Y-27296835D01*
X39350000Y-27296835D02*
X39321428Y-27296835D01*
X39321428Y-27296835D02*
X39278571Y-27282550D01*
X39278571Y-27282550D02*
X39250000Y-27253978D01*
X39250000Y-27253978D02*
X39235714Y-27225407D01*
X39235714Y-27225407D02*
X39221428Y-27168264D01*
X39221428Y-27168264D02*
X39221428Y-27125407D01*
X39221428Y-27125407D02*
X39235714Y-27068264D01*
X39235714Y-27068264D02*
X39250000Y-27039692D01*
X39250000Y-27039692D02*
X39278571Y-27011121D01*
X39278571Y-27011121D02*
X39321428Y-26996835D01*
X39321428Y-26996835D02*
X39350000Y-26996835D01*
X39350000Y-26996835D02*
X39392857Y-27011121D01*
X39392857Y-27011121D02*
X39407143Y-27025407D01*
X39521428Y-27025407D02*
X39535714Y-27011121D01*
X39535714Y-27011121D02*
X39564286Y-26996835D01*
X39564286Y-26996835D02*
X39635714Y-26996835D01*
X39635714Y-26996835D02*
X39664286Y-27011121D01*
X39664286Y-27011121D02*
X39678571Y-27025407D01*
X39678571Y-27025407D02*
X39692857Y-27053978D01*
X39692857Y-27053978D02*
X39692857Y-27082550D01*
X39692857Y-27082550D02*
X39678571Y-27125407D01*
X39678571Y-27125407D02*
X39507143Y-27296835D01*
X39507143Y-27296835D02*
X39692857Y-27296835D01*
X39835714Y-27296835D02*
X39892857Y-27296835D01*
X39892857Y-27296835D02*
X39921428Y-27282550D01*
X39921428Y-27282550D02*
X39935714Y-27268264D01*
X39935714Y-27268264D02*
X39964285Y-27225407D01*
X39964285Y-27225407D02*
X39978571Y-27168264D01*
X39978571Y-27168264D02*
X39978571Y-27053978D01*
X39978571Y-27053978D02*
X39964285Y-27025407D01*
X39964285Y-27025407D02*
X39950000Y-27011121D01*
X39950000Y-27011121D02*
X39921428Y-26996835D01*
X39921428Y-26996835D02*
X39864285Y-26996835D01*
X39864285Y-26996835D02*
X39835714Y-27011121D01*
X39835714Y-27011121D02*
X39821428Y-27025407D01*
X39821428Y-27025407D02*
X39807142Y-27053978D01*
X39807142Y-27053978D02*
X39807142Y-27125407D01*
X39807142Y-27125407D02*
X39821428Y-27153978D01*
X39821428Y-27153978D02*
X39835714Y-27168264D01*
X39835714Y-27168264D02*
X39864285Y-27182550D01*
X39864285Y-27182550D02*
X39921428Y-27182550D01*
X39921428Y-27182550D02*
X39950000Y-27168264D01*
X39950000Y-27168264D02*
X39964285Y-27153978D01*
X39964285Y-27153978D02*
X39978571Y-27125407D01*
X19907143Y-39436835D02*
X19807143Y-39293978D01*
X19735714Y-39436835D02*
X19735714Y-39136835D01*
X19735714Y-39136835D02*
X19850000Y-39136835D01*
X19850000Y-39136835D02*
X19878571Y-39151121D01*
X19878571Y-39151121D02*
X19892857Y-39165407D01*
X19892857Y-39165407D02*
X19907143Y-39193978D01*
X19907143Y-39193978D02*
X19907143Y-39236835D01*
X19907143Y-39236835D02*
X19892857Y-39265407D01*
X19892857Y-39265407D02*
X19878571Y-39279692D01*
X19878571Y-39279692D02*
X19850000Y-39293978D01*
X19850000Y-39293978D02*
X19735714Y-39293978D01*
X20178571Y-39136835D02*
X20035714Y-39136835D01*
X20035714Y-39136835D02*
X20021428Y-39279692D01*
X20021428Y-39279692D02*
X20035714Y-39265407D01*
X20035714Y-39265407D02*
X20064286Y-39251121D01*
X20064286Y-39251121D02*
X20135714Y-39251121D01*
X20135714Y-39251121D02*
X20164286Y-39265407D01*
X20164286Y-39265407D02*
X20178571Y-39279692D01*
X20178571Y-39279692D02*
X20192857Y-39308264D01*
X20192857Y-39308264D02*
X20192857Y-39379692D01*
X20192857Y-39379692D02*
X20178571Y-39408264D01*
X20178571Y-39408264D02*
X20164286Y-39422550D01*
X20164286Y-39422550D02*
X20135714Y-39436835D01*
X20135714Y-39436835D02*
X20064286Y-39436835D01*
X20064286Y-39436835D02*
X20035714Y-39422550D01*
X20035714Y-39422550D02*
X20021428Y-39408264D01*
X20450000Y-39236835D02*
X20450000Y-39436835D01*
X20378571Y-39122550D02*
X20307142Y-39336835D01*
X20307142Y-39336835D02*
X20492857Y-39336835D01*
X47443978Y-24542856D02*
X47586835Y-24542856D01*
X47286835Y-24642856D02*
X47443978Y-24542856D01*
X47443978Y-24542856D02*
X47286835Y-24442856D01*
X47586835Y-24185713D02*
X47586835Y-24357142D01*
X47586835Y-24271427D02*
X47286835Y-24271427D01*
X47286835Y-24271427D02*
X47329692Y-24299999D01*
X47329692Y-24299999D02*
X47358264Y-24328570D01*
X47358264Y-24328570D02*
X47372550Y-24357142D01*
X39407143Y-23548264D02*
X39392857Y-23562550D01*
X39392857Y-23562550D02*
X39350000Y-23576835D01*
X39350000Y-23576835D02*
X39321428Y-23576835D01*
X39321428Y-23576835D02*
X39278571Y-23562550D01*
X39278571Y-23562550D02*
X39250000Y-23533978D01*
X39250000Y-23533978D02*
X39235714Y-23505407D01*
X39235714Y-23505407D02*
X39221428Y-23448264D01*
X39221428Y-23448264D02*
X39221428Y-23405407D01*
X39221428Y-23405407D02*
X39235714Y-23348264D01*
X39235714Y-23348264D02*
X39250000Y-23319692D01*
X39250000Y-23319692D02*
X39278571Y-23291121D01*
X39278571Y-23291121D02*
X39321428Y-23276835D01*
X39321428Y-23276835D02*
X39350000Y-23276835D01*
X39350000Y-23276835D02*
X39392857Y-23291121D01*
X39392857Y-23291121D02*
X39407143Y-23305407D01*
X39521428Y-23305407D02*
X39535714Y-23291121D01*
X39535714Y-23291121D02*
X39564286Y-23276835D01*
X39564286Y-23276835D02*
X39635714Y-23276835D01*
X39635714Y-23276835D02*
X39664286Y-23291121D01*
X39664286Y-23291121D02*
X39678571Y-23305407D01*
X39678571Y-23305407D02*
X39692857Y-23333978D01*
X39692857Y-23333978D02*
X39692857Y-23362550D01*
X39692857Y-23362550D02*
X39678571Y-23405407D01*
X39678571Y-23405407D02*
X39507143Y-23576835D01*
X39507143Y-23576835D02*
X39692857Y-23576835D01*
X39964285Y-23276835D02*
X39821428Y-23276835D01*
X39821428Y-23276835D02*
X39807142Y-23419692D01*
X39807142Y-23419692D02*
X39821428Y-23405407D01*
X39821428Y-23405407D02*
X39850000Y-23391121D01*
X39850000Y-23391121D02*
X39921428Y-23391121D01*
X39921428Y-23391121D02*
X39950000Y-23405407D01*
X39950000Y-23405407D02*
X39964285Y-23419692D01*
X39964285Y-23419692D02*
X39978571Y-23448264D01*
X39978571Y-23448264D02*
X39978571Y-23519692D01*
X39978571Y-23519692D02*
X39964285Y-23548264D01*
X39964285Y-23548264D02*
X39950000Y-23562550D01*
X39950000Y-23562550D02*
X39921428Y-23576835D01*
X39921428Y-23576835D02*
X39850000Y-23576835D01*
X39850000Y-23576835D02*
X39821428Y-23562550D01*
X39821428Y-23562550D02*
X39807142Y-23548264D01*
X10612143Y-5373264D02*
X10597857Y-5387550D01*
X10597857Y-5387550D02*
X10555000Y-5401835D01*
X10555000Y-5401835D02*
X10526428Y-5401835D01*
X10526428Y-5401835D02*
X10483571Y-5387550D01*
X10483571Y-5387550D02*
X10455000Y-5358978D01*
X10455000Y-5358978D02*
X10440714Y-5330407D01*
X10440714Y-5330407D02*
X10426428Y-5273264D01*
X10426428Y-5273264D02*
X10426428Y-5230407D01*
X10426428Y-5230407D02*
X10440714Y-5173264D01*
X10440714Y-5173264D02*
X10455000Y-5144692D01*
X10455000Y-5144692D02*
X10483571Y-5116121D01*
X10483571Y-5116121D02*
X10526428Y-5101835D01*
X10526428Y-5101835D02*
X10555000Y-5101835D01*
X10555000Y-5101835D02*
X10597857Y-5116121D01*
X10597857Y-5116121D02*
X10612143Y-5130407D01*
X10712143Y-5101835D02*
X10897857Y-5101835D01*
X10897857Y-5101835D02*
X10797857Y-5216121D01*
X10797857Y-5216121D02*
X10840714Y-5216121D01*
X10840714Y-5216121D02*
X10869286Y-5230407D01*
X10869286Y-5230407D02*
X10883571Y-5244692D01*
X10883571Y-5244692D02*
X10897857Y-5273264D01*
X10897857Y-5273264D02*
X10897857Y-5344692D01*
X10897857Y-5344692D02*
X10883571Y-5373264D01*
X10883571Y-5373264D02*
X10869286Y-5387550D01*
X10869286Y-5387550D02*
X10840714Y-5401835D01*
X10840714Y-5401835D02*
X10755000Y-5401835D01*
X10755000Y-5401835D02*
X10726428Y-5387550D01*
X10726428Y-5387550D02*
X10712143Y-5373264D01*
X11169285Y-5101835D02*
X11026428Y-5101835D01*
X11026428Y-5101835D02*
X11012142Y-5244692D01*
X11012142Y-5244692D02*
X11026428Y-5230407D01*
X11026428Y-5230407D02*
X11055000Y-5216121D01*
X11055000Y-5216121D02*
X11126428Y-5216121D01*
X11126428Y-5216121D02*
X11155000Y-5230407D01*
X11155000Y-5230407D02*
X11169285Y-5244692D01*
X11169285Y-5244692D02*
X11183571Y-5273264D01*
X11183571Y-5273264D02*
X11183571Y-5344692D01*
X11183571Y-5344692D02*
X11169285Y-5373264D01*
X11169285Y-5373264D02*
X11155000Y-5387550D01*
X11155000Y-5387550D02*
X11126428Y-5401835D01*
X11126428Y-5401835D02*
X11055000Y-5401835D01*
X11055000Y-5401835D02*
X11026428Y-5387550D01*
X11026428Y-5387550D02*
X11012142Y-5373264D01*
X25908928Y-15986835D02*
X25908928Y-16229692D01*
X25908928Y-16229692D02*
X25923214Y-16258264D01*
X25923214Y-16258264D02*
X25937500Y-16272550D01*
X25937500Y-16272550D02*
X25966071Y-16286835D01*
X25966071Y-16286835D02*
X26023214Y-16286835D01*
X26023214Y-16286835D02*
X26051785Y-16272550D01*
X26051785Y-16272550D02*
X26066071Y-16258264D01*
X26066071Y-16258264D02*
X26080357Y-16229692D01*
X26080357Y-16229692D02*
X26080357Y-15986835D01*
X26208928Y-16015407D02*
X26223214Y-16001121D01*
X26223214Y-16001121D02*
X26251786Y-15986835D01*
X26251786Y-15986835D02*
X26323214Y-15986835D01*
X26323214Y-15986835D02*
X26351786Y-16001121D01*
X26351786Y-16001121D02*
X26366071Y-16015407D01*
X26366071Y-16015407D02*
X26380357Y-16043978D01*
X26380357Y-16043978D02*
X26380357Y-16072550D01*
X26380357Y-16072550D02*
X26366071Y-16115407D01*
X26366071Y-16115407D02*
X26194643Y-16286835D01*
X26194643Y-16286835D02*
X26380357Y-16286835D01*
X34768264Y-19392856D02*
X34782550Y-19407142D01*
X34782550Y-19407142D02*
X34796835Y-19449999D01*
X34796835Y-19449999D02*
X34796835Y-19478571D01*
X34796835Y-19478571D02*
X34782550Y-19521428D01*
X34782550Y-19521428D02*
X34753978Y-19549999D01*
X34753978Y-19549999D02*
X34725407Y-19564285D01*
X34725407Y-19564285D02*
X34668264Y-19578571D01*
X34668264Y-19578571D02*
X34625407Y-19578571D01*
X34625407Y-19578571D02*
X34568264Y-19564285D01*
X34568264Y-19564285D02*
X34539692Y-19549999D01*
X34539692Y-19549999D02*
X34511121Y-19521428D01*
X34511121Y-19521428D02*
X34496835Y-19478571D01*
X34496835Y-19478571D02*
X34496835Y-19449999D01*
X34496835Y-19449999D02*
X34511121Y-19407142D01*
X34511121Y-19407142D02*
X34525407Y-19392856D01*
X34525407Y-19278571D02*
X34511121Y-19264285D01*
X34511121Y-19264285D02*
X34496835Y-19235714D01*
X34496835Y-19235714D02*
X34496835Y-19164285D01*
X34496835Y-19164285D02*
X34511121Y-19135714D01*
X34511121Y-19135714D02*
X34525407Y-19121428D01*
X34525407Y-19121428D02*
X34553978Y-19107142D01*
X34553978Y-19107142D02*
X34582550Y-19107142D01*
X34582550Y-19107142D02*
X34625407Y-19121428D01*
X34625407Y-19121428D02*
X34796835Y-19292856D01*
X34796835Y-19292856D02*
X34796835Y-19107142D01*
X34625407Y-18935714D02*
X34611121Y-18964285D01*
X34611121Y-18964285D02*
X34596835Y-18978571D01*
X34596835Y-18978571D02*
X34568264Y-18992857D01*
X34568264Y-18992857D02*
X34553978Y-18992857D01*
X34553978Y-18992857D02*
X34525407Y-18978571D01*
X34525407Y-18978571D02*
X34511121Y-18964285D01*
X34511121Y-18964285D02*
X34496835Y-18935714D01*
X34496835Y-18935714D02*
X34496835Y-18878571D01*
X34496835Y-18878571D02*
X34511121Y-18850000D01*
X34511121Y-18850000D02*
X34525407Y-18835714D01*
X34525407Y-18835714D02*
X34553978Y-18821428D01*
X34553978Y-18821428D02*
X34568264Y-18821428D01*
X34568264Y-18821428D02*
X34596835Y-18835714D01*
X34596835Y-18835714D02*
X34611121Y-18850000D01*
X34611121Y-18850000D02*
X34625407Y-18878571D01*
X34625407Y-18878571D02*
X34625407Y-18935714D01*
X34625407Y-18935714D02*
X34639692Y-18964285D01*
X34639692Y-18964285D02*
X34653978Y-18978571D01*
X34653978Y-18978571D02*
X34682550Y-18992857D01*
X34682550Y-18992857D02*
X34739692Y-18992857D01*
X34739692Y-18992857D02*
X34768264Y-18978571D01*
X34768264Y-18978571D02*
X34782550Y-18964285D01*
X34782550Y-18964285D02*
X34796835Y-18935714D01*
X34796835Y-18935714D02*
X34796835Y-18878571D01*
X34796835Y-18878571D02*
X34782550Y-18850000D01*
X34782550Y-18850000D02*
X34768264Y-18835714D01*
X34768264Y-18835714D02*
X34739692Y-18821428D01*
X34739692Y-18821428D02*
X34682550Y-18821428D01*
X34682550Y-18821428D02*
X34653978Y-18835714D01*
X34653978Y-18835714D02*
X34639692Y-18850000D01*
X34639692Y-18850000D02*
X34625407Y-18878571D01*
X52771428Y-38142550D02*
X52814286Y-38156835D01*
X52814286Y-38156835D02*
X52885714Y-38156835D01*
X52885714Y-38156835D02*
X52914286Y-38142550D01*
X52914286Y-38142550D02*
X52928571Y-38128264D01*
X52928571Y-38128264D02*
X52942857Y-38099692D01*
X52942857Y-38099692D02*
X52942857Y-38071121D01*
X52942857Y-38071121D02*
X52928571Y-38042550D01*
X52928571Y-38042550D02*
X52914286Y-38028264D01*
X52914286Y-38028264D02*
X52885714Y-38013978D01*
X52885714Y-38013978D02*
X52828571Y-37999692D01*
X52828571Y-37999692D02*
X52800000Y-37985407D01*
X52800000Y-37985407D02*
X52785714Y-37971121D01*
X52785714Y-37971121D02*
X52771428Y-37942550D01*
X52771428Y-37942550D02*
X52771428Y-37913978D01*
X52771428Y-37913978D02*
X52785714Y-37885407D01*
X52785714Y-37885407D02*
X52800000Y-37871121D01*
X52800000Y-37871121D02*
X52828571Y-37856835D01*
X52828571Y-37856835D02*
X52900000Y-37856835D01*
X52900000Y-37856835D02*
X52942857Y-37871121D01*
X53228571Y-38156835D02*
X53057142Y-38156835D01*
X53142857Y-38156835D02*
X53142857Y-37856835D01*
X53142857Y-37856835D02*
X53114285Y-37899692D01*
X53114285Y-37899692D02*
X53085714Y-37928264D01*
X53085714Y-37928264D02*
X53057142Y-37942550D01*
X26707143Y-25366835D02*
X26607143Y-25223978D01*
X26535714Y-25366835D02*
X26535714Y-25066835D01*
X26535714Y-25066835D02*
X26650000Y-25066835D01*
X26650000Y-25066835D02*
X26678571Y-25081121D01*
X26678571Y-25081121D02*
X26692857Y-25095407D01*
X26692857Y-25095407D02*
X26707143Y-25123978D01*
X26707143Y-25123978D02*
X26707143Y-25166835D01*
X26707143Y-25166835D02*
X26692857Y-25195407D01*
X26692857Y-25195407D02*
X26678571Y-25209692D01*
X26678571Y-25209692D02*
X26650000Y-25223978D01*
X26650000Y-25223978D02*
X26535714Y-25223978D01*
X26978571Y-25066835D02*
X26835714Y-25066835D01*
X26835714Y-25066835D02*
X26821428Y-25209692D01*
X26821428Y-25209692D02*
X26835714Y-25195407D01*
X26835714Y-25195407D02*
X26864286Y-25181121D01*
X26864286Y-25181121D02*
X26935714Y-25181121D01*
X26935714Y-25181121D02*
X26964286Y-25195407D01*
X26964286Y-25195407D02*
X26978571Y-25209692D01*
X26978571Y-25209692D02*
X26992857Y-25238264D01*
X26992857Y-25238264D02*
X26992857Y-25309692D01*
X26992857Y-25309692D02*
X26978571Y-25338264D01*
X26978571Y-25338264D02*
X26964286Y-25352550D01*
X26964286Y-25352550D02*
X26935714Y-25366835D01*
X26935714Y-25366835D02*
X26864286Y-25366835D01*
X26864286Y-25366835D02*
X26835714Y-25352550D01*
X26835714Y-25352550D02*
X26821428Y-25338264D01*
X27278571Y-25366835D02*
X27107142Y-25366835D01*
X27192857Y-25366835D02*
X27192857Y-25066835D01*
X27192857Y-25066835D02*
X27164285Y-25109692D01*
X27164285Y-25109692D02*
X27135714Y-25138264D01*
X27135714Y-25138264D02*
X27107142Y-25152550D01*
X28568264Y-22092856D02*
X28582550Y-22107142D01*
X28582550Y-22107142D02*
X28596835Y-22149999D01*
X28596835Y-22149999D02*
X28596835Y-22178571D01*
X28596835Y-22178571D02*
X28582550Y-22221428D01*
X28582550Y-22221428D02*
X28553978Y-22249999D01*
X28553978Y-22249999D02*
X28525407Y-22264285D01*
X28525407Y-22264285D02*
X28468264Y-22278571D01*
X28468264Y-22278571D02*
X28425407Y-22278571D01*
X28425407Y-22278571D02*
X28368264Y-22264285D01*
X28368264Y-22264285D02*
X28339692Y-22249999D01*
X28339692Y-22249999D02*
X28311121Y-22221428D01*
X28311121Y-22221428D02*
X28296835Y-22178571D01*
X28296835Y-22178571D02*
X28296835Y-22149999D01*
X28296835Y-22149999D02*
X28311121Y-22107142D01*
X28311121Y-22107142D02*
X28325407Y-22092856D01*
X28296835Y-21992856D02*
X28296835Y-21807142D01*
X28296835Y-21807142D02*
X28411121Y-21907142D01*
X28411121Y-21907142D02*
X28411121Y-21864285D01*
X28411121Y-21864285D02*
X28425407Y-21835714D01*
X28425407Y-21835714D02*
X28439692Y-21821428D01*
X28439692Y-21821428D02*
X28468264Y-21807142D01*
X28468264Y-21807142D02*
X28539692Y-21807142D01*
X28539692Y-21807142D02*
X28568264Y-21821428D01*
X28568264Y-21821428D02*
X28582550Y-21835714D01*
X28582550Y-21835714D02*
X28596835Y-21864285D01*
X28596835Y-21864285D02*
X28596835Y-21949999D01*
X28596835Y-21949999D02*
X28582550Y-21978571D01*
X28582550Y-21978571D02*
X28568264Y-21992856D01*
X28296835Y-21707142D02*
X28296835Y-21507142D01*
X28296835Y-21507142D02*
X28596835Y-21635714D01*
X32348264Y-29892856D02*
X32362550Y-29907142D01*
X32362550Y-29907142D02*
X32376835Y-29949999D01*
X32376835Y-29949999D02*
X32376835Y-29978571D01*
X32376835Y-29978571D02*
X32362550Y-30021428D01*
X32362550Y-30021428D02*
X32333978Y-30049999D01*
X32333978Y-30049999D02*
X32305407Y-30064285D01*
X32305407Y-30064285D02*
X32248264Y-30078571D01*
X32248264Y-30078571D02*
X32205407Y-30078571D01*
X32205407Y-30078571D02*
X32148264Y-30064285D01*
X32148264Y-30064285D02*
X32119692Y-30049999D01*
X32119692Y-30049999D02*
X32091121Y-30021428D01*
X32091121Y-30021428D02*
X32076835Y-29978571D01*
X32076835Y-29978571D02*
X32076835Y-29949999D01*
X32076835Y-29949999D02*
X32091121Y-29907142D01*
X32091121Y-29907142D02*
X32105407Y-29892856D01*
X32105407Y-29778571D02*
X32091121Y-29764285D01*
X32091121Y-29764285D02*
X32076835Y-29735714D01*
X32076835Y-29735714D02*
X32076835Y-29664285D01*
X32076835Y-29664285D02*
X32091121Y-29635714D01*
X32091121Y-29635714D02*
X32105407Y-29621428D01*
X32105407Y-29621428D02*
X32133978Y-29607142D01*
X32133978Y-29607142D02*
X32162550Y-29607142D01*
X32162550Y-29607142D02*
X32205407Y-29621428D01*
X32205407Y-29621428D02*
X32376835Y-29792856D01*
X32376835Y-29792856D02*
X32376835Y-29607142D01*
X32076835Y-29507142D02*
X32076835Y-29307142D01*
X32076835Y-29307142D02*
X32376835Y-29435714D01*
X14907143Y-7048264D02*
X14892857Y-7062550D01*
X14892857Y-7062550D02*
X14850000Y-7076835D01*
X14850000Y-7076835D02*
X14821428Y-7076835D01*
X14821428Y-7076835D02*
X14778571Y-7062550D01*
X14778571Y-7062550D02*
X14750000Y-7033978D01*
X14750000Y-7033978D02*
X14735714Y-7005407D01*
X14735714Y-7005407D02*
X14721428Y-6948264D01*
X14721428Y-6948264D02*
X14721428Y-6905407D01*
X14721428Y-6905407D02*
X14735714Y-6848264D01*
X14735714Y-6848264D02*
X14750000Y-6819692D01*
X14750000Y-6819692D02*
X14778571Y-6791121D01*
X14778571Y-6791121D02*
X14821428Y-6776835D01*
X14821428Y-6776835D02*
X14850000Y-6776835D01*
X14850000Y-6776835D02*
X14892857Y-6791121D01*
X14892857Y-6791121D02*
X14907143Y-6805407D01*
X15007143Y-6776835D02*
X15192857Y-6776835D01*
X15192857Y-6776835D02*
X15092857Y-6891121D01*
X15092857Y-6891121D02*
X15135714Y-6891121D01*
X15135714Y-6891121D02*
X15164286Y-6905407D01*
X15164286Y-6905407D02*
X15178571Y-6919692D01*
X15178571Y-6919692D02*
X15192857Y-6948264D01*
X15192857Y-6948264D02*
X15192857Y-7019692D01*
X15192857Y-7019692D02*
X15178571Y-7048264D01*
X15178571Y-7048264D02*
X15164286Y-7062550D01*
X15164286Y-7062550D02*
X15135714Y-7076835D01*
X15135714Y-7076835D02*
X15050000Y-7076835D01*
X15050000Y-7076835D02*
X15021428Y-7062550D01*
X15021428Y-7062550D02*
X15007143Y-7048264D01*
X15450000Y-6776835D02*
X15392857Y-6776835D01*
X15392857Y-6776835D02*
X15364285Y-6791121D01*
X15364285Y-6791121D02*
X15350000Y-6805407D01*
X15350000Y-6805407D02*
X15321428Y-6848264D01*
X15321428Y-6848264D02*
X15307142Y-6905407D01*
X15307142Y-6905407D02*
X15307142Y-7019692D01*
X15307142Y-7019692D02*
X15321428Y-7048264D01*
X15321428Y-7048264D02*
X15335714Y-7062550D01*
X15335714Y-7062550D02*
X15364285Y-7076835D01*
X15364285Y-7076835D02*
X15421428Y-7076835D01*
X15421428Y-7076835D02*
X15450000Y-7062550D01*
X15450000Y-7062550D02*
X15464285Y-7048264D01*
X15464285Y-7048264D02*
X15478571Y-7019692D01*
X15478571Y-7019692D02*
X15478571Y-6948264D01*
X15478571Y-6948264D02*
X15464285Y-6919692D01*
X15464285Y-6919692D02*
X15450000Y-6905407D01*
X15450000Y-6905407D02*
X15421428Y-6891121D01*
X15421428Y-6891121D02*
X15364285Y-6891121D01*
X15364285Y-6891121D02*
X15335714Y-6905407D01*
X15335714Y-6905407D02*
X15321428Y-6919692D01*
X15321428Y-6919692D02*
X15307142Y-6948264D01*
X-504999Y766735D02*
X-519285Y752450D01*
X-519285Y752450D02*
X-562142Y738164D01*
X-562142Y738164D02*
X-590714Y738164D01*
X-590714Y738164D02*
X-633571Y752450D01*
X-633571Y752450D02*
X-662142Y781021D01*
X-662142Y781021D02*
X-676428Y809592D01*
X-676428Y809592D02*
X-690714Y866735D01*
X-690714Y866735D02*
X-690714Y909592D01*
X-690714Y909592D02*
X-676428Y966735D01*
X-676428Y966735D02*
X-662142Y995307D01*
X-662142Y995307D02*
X-633571Y1023878D01*
X-633571Y1023878D02*
X-590714Y1038164D01*
X-590714Y1038164D02*
X-562142Y1038164D01*
X-562142Y1038164D02*
X-519285Y1023878D01*
X-519285Y1023878D02*
X-504999Y1009592D01*
X-390714Y1009592D02*
X-376428Y1023878D01*
X-376428Y1023878D02*
X-347857Y1038164D01*
X-347857Y1038164D02*
X-276428Y1038164D01*
X-276428Y1038164D02*
X-247857Y1023878D01*
X-247857Y1023878D02*
X-233571Y1009592D01*
X-233571Y1009592D02*
X-219285Y981021D01*
X-219285Y981021D02*
X-219285Y952450D01*
X-219285Y952450D02*
X-233571Y909592D01*
X-233571Y909592D02*
X-404999Y738164D01*
X-404999Y738164D02*
X-219285Y738164D01*
D11*
X31871428Y-18154819D02*
X31538095Y-17678628D01*
X31300000Y-18154819D02*
X31300000Y-17154819D01*
X31300000Y-17154819D02*
X31680952Y-17154819D01*
X31680952Y-17154819D02*
X31776190Y-17202438D01*
X31776190Y-17202438D02*
X31823809Y-17250057D01*
X31823809Y-17250057D02*
X31871428Y-17345295D01*
X31871428Y-17345295D02*
X31871428Y-17488152D01*
X31871428Y-17488152D02*
X31823809Y-17583390D01*
X31823809Y-17583390D02*
X31776190Y-17631009D01*
X31776190Y-17631009D02*
X31680952Y-17678628D01*
X31680952Y-17678628D02*
X31300000Y-17678628D01*
X32300000Y-17631009D02*
X32633333Y-17631009D01*
X32776190Y-18154819D02*
X32300000Y-18154819D01*
X32300000Y-18154819D02*
X32300000Y-17154819D01*
X32300000Y-17154819D02*
X32776190Y-17154819D01*
X33157143Y-18107200D02*
X33300000Y-18154819D01*
X33300000Y-18154819D02*
X33538095Y-18154819D01*
X33538095Y-18154819D02*
X33633333Y-18107200D01*
X33633333Y-18107200D02*
X33680952Y-18059580D01*
X33680952Y-18059580D02*
X33728571Y-17964342D01*
X33728571Y-17964342D02*
X33728571Y-17869104D01*
X33728571Y-17869104D02*
X33680952Y-17773866D01*
X33680952Y-17773866D02*
X33633333Y-17726247D01*
X33633333Y-17726247D02*
X33538095Y-17678628D01*
X33538095Y-17678628D02*
X33347619Y-17631009D01*
X33347619Y-17631009D02*
X33252381Y-17583390D01*
X33252381Y-17583390D02*
X33204762Y-17535771D01*
X33204762Y-17535771D02*
X33157143Y-17440533D01*
X33157143Y-17440533D02*
X33157143Y-17345295D01*
X33157143Y-17345295D02*
X33204762Y-17250057D01*
X33204762Y-17250057D02*
X33252381Y-17202438D01*
X33252381Y-17202438D02*
X33347619Y-17154819D01*
X33347619Y-17154819D02*
X33585714Y-17154819D01*
X33585714Y-17154819D02*
X33728571Y-17202438D01*
X34157143Y-17631009D02*
X34490476Y-17631009D01*
X34633333Y-18154819D02*
X34157143Y-18154819D01*
X34157143Y-18154819D02*
X34157143Y-17154819D01*
X34157143Y-17154819D02*
X34633333Y-17154819D01*
X34919048Y-17154819D02*
X35490476Y-17154819D01*
X35204762Y-18154819D02*
X35204762Y-17154819D01*
X36347619Y-18154819D02*
X35776191Y-18154819D01*
X36061905Y-18154819D02*
X36061905Y-17154819D01*
X36061905Y-17154819D02*
X35966667Y-17297676D01*
X35966667Y-17297676D02*
X35871429Y-17392914D01*
X35871429Y-17392914D02*
X35776191Y-17440533D01*
D10*
X30907143Y-18566835D02*
X30807143Y-18423978D01*
X30735714Y-18566835D02*
X30735714Y-18266835D01*
X30735714Y-18266835D02*
X30850000Y-18266835D01*
X30850000Y-18266835D02*
X30878571Y-18281121D01*
X30878571Y-18281121D02*
X30892857Y-18295407D01*
X30892857Y-18295407D02*
X30907143Y-18323978D01*
X30907143Y-18323978D02*
X30907143Y-18366835D01*
X30907143Y-18366835D02*
X30892857Y-18395407D01*
X30892857Y-18395407D02*
X30878571Y-18409692D01*
X30878571Y-18409692D02*
X30850000Y-18423978D01*
X30850000Y-18423978D02*
X30735714Y-18423978D01*
X31021428Y-18295407D02*
X31035714Y-18281121D01*
X31035714Y-18281121D02*
X31064286Y-18266835D01*
X31064286Y-18266835D02*
X31135714Y-18266835D01*
X31135714Y-18266835D02*
X31164286Y-18281121D01*
X31164286Y-18281121D02*
X31178571Y-18295407D01*
X31178571Y-18295407D02*
X31192857Y-18323978D01*
X31192857Y-18323978D02*
X31192857Y-18352550D01*
X31192857Y-18352550D02*
X31178571Y-18395407D01*
X31178571Y-18395407D02*
X31007143Y-18566835D01*
X31007143Y-18566835D02*
X31192857Y-18566835D01*
X31292857Y-18266835D02*
X31478571Y-18266835D01*
X31478571Y-18266835D02*
X31378571Y-18381121D01*
X31378571Y-18381121D02*
X31421428Y-18381121D01*
X31421428Y-18381121D02*
X31450000Y-18395407D01*
X31450000Y-18395407D02*
X31464285Y-18409692D01*
X31464285Y-18409692D02*
X31478571Y-18438264D01*
X31478571Y-18438264D02*
X31478571Y-18509692D01*
X31478571Y-18509692D02*
X31464285Y-18538264D01*
X31464285Y-18538264D02*
X31450000Y-18552550D01*
X31450000Y-18552550D02*
X31421428Y-18566835D01*
X31421428Y-18566835D02*
X31335714Y-18566835D01*
X31335714Y-18566835D02*
X31307142Y-18552550D01*
X31307142Y-18552550D02*
X31292857Y-18538264D01*
X26907143Y-16666835D02*
X26807143Y-16523978D01*
X26735714Y-16666835D02*
X26735714Y-16366835D01*
X26735714Y-16366835D02*
X26850000Y-16366835D01*
X26850000Y-16366835D02*
X26878571Y-16381121D01*
X26878571Y-16381121D02*
X26892857Y-16395407D01*
X26892857Y-16395407D02*
X26907143Y-16423978D01*
X26907143Y-16423978D02*
X26907143Y-16466835D01*
X26907143Y-16466835D02*
X26892857Y-16495407D01*
X26892857Y-16495407D02*
X26878571Y-16509692D01*
X26878571Y-16509692D02*
X26850000Y-16523978D01*
X26850000Y-16523978D02*
X26735714Y-16523978D01*
X27021428Y-16395407D02*
X27035714Y-16381121D01*
X27035714Y-16381121D02*
X27064286Y-16366835D01*
X27064286Y-16366835D02*
X27135714Y-16366835D01*
X27135714Y-16366835D02*
X27164286Y-16381121D01*
X27164286Y-16381121D02*
X27178571Y-16395407D01*
X27178571Y-16395407D02*
X27192857Y-16423978D01*
X27192857Y-16423978D02*
X27192857Y-16452550D01*
X27192857Y-16452550D02*
X27178571Y-16495407D01*
X27178571Y-16495407D02*
X27007143Y-16666835D01*
X27007143Y-16666835D02*
X27192857Y-16666835D01*
X27335714Y-16666835D02*
X27392857Y-16666835D01*
X27392857Y-16666835D02*
X27421428Y-16652550D01*
X27421428Y-16652550D02*
X27435714Y-16638264D01*
X27435714Y-16638264D02*
X27464285Y-16595407D01*
X27464285Y-16595407D02*
X27478571Y-16538264D01*
X27478571Y-16538264D02*
X27478571Y-16423978D01*
X27478571Y-16423978D02*
X27464285Y-16395407D01*
X27464285Y-16395407D02*
X27450000Y-16381121D01*
X27450000Y-16381121D02*
X27421428Y-16366835D01*
X27421428Y-16366835D02*
X27364285Y-16366835D01*
X27364285Y-16366835D02*
X27335714Y-16381121D01*
X27335714Y-16381121D02*
X27321428Y-16395407D01*
X27321428Y-16395407D02*
X27307142Y-16423978D01*
X27307142Y-16423978D02*
X27307142Y-16495407D01*
X27307142Y-16495407D02*
X27321428Y-16523978D01*
X27321428Y-16523978D02*
X27335714Y-16538264D01*
X27335714Y-16538264D02*
X27364285Y-16552550D01*
X27364285Y-16552550D02*
X27421428Y-16552550D01*
X27421428Y-16552550D02*
X27450000Y-16538264D01*
X27450000Y-16538264D02*
X27464285Y-16523978D01*
X27464285Y-16523978D02*
X27478571Y-16495407D01*
X109771428Y-53123050D02*
X109814286Y-53137335D01*
X109814286Y-53137335D02*
X109885714Y-53137335D01*
X109885714Y-53137335D02*
X109914286Y-53123050D01*
X109914286Y-53123050D02*
X109928571Y-53108764D01*
X109928571Y-53108764D02*
X109942857Y-53080192D01*
X109942857Y-53080192D02*
X109942857Y-53051621D01*
X109942857Y-53051621D02*
X109928571Y-53023050D01*
X109928571Y-53023050D02*
X109914286Y-53008764D01*
X109914286Y-53008764D02*
X109885714Y-52994478D01*
X109885714Y-52994478D02*
X109828571Y-52980192D01*
X109828571Y-52980192D02*
X109800000Y-52965907D01*
X109800000Y-52965907D02*
X109785714Y-52951621D01*
X109785714Y-52951621D02*
X109771428Y-52923050D01*
X109771428Y-52923050D02*
X109771428Y-52894478D01*
X109771428Y-52894478D02*
X109785714Y-52865907D01*
X109785714Y-52865907D02*
X109800000Y-52851621D01*
X109800000Y-52851621D02*
X109828571Y-52837335D01*
X109828571Y-52837335D02*
X109900000Y-52837335D01*
X109900000Y-52837335D02*
X109942857Y-52851621D01*
X110042857Y-52837335D02*
X110228571Y-52837335D01*
X110228571Y-52837335D02*
X110128571Y-52951621D01*
X110128571Y-52951621D02*
X110171428Y-52951621D01*
X110171428Y-52951621D02*
X110200000Y-52965907D01*
X110200000Y-52965907D02*
X110214285Y-52980192D01*
X110214285Y-52980192D02*
X110228571Y-53008764D01*
X110228571Y-53008764D02*
X110228571Y-53080192D01*
X110228571Y-53080192D02*
X110214285Y-53108764D01*
X110214285Y-53108764D02*
X110200000Y-53123050D01*
X110200000Y-53123050D02*
X110171428Y-53137335D01*
X110171428Y-53137335D02*
X110085714Y-53137335D01*
X110085714Y-53137335D02*
X110057142Y-53123050D01*
X110057142Y-53123050D02*
X110042857Y-53108764D01*
X44950000Y-26078264D02*
X44935714Y-26092550D01*
X44935714Y-26092550D02*
X44892857Y-26106835D01*
X44892857Y-26106835D02*
X44864285Y-26106835D01*
X44864285Y-26106835D02*
X44821428Y-26092550D01*
X44821428Y-26092550D02*
X44792857Y-26063978D01*
X44792857Y-26063978D02*
X44778571Y-26035407D01*
X44778571Y-26035407D02*
X44764285Y-25978264D01*
X44764285Y-25978264D02*
X44764285Y-25935407D01*
X44764285Y-25935407D02*
X44778571Y-25878264D01*
X44778571Y-25878264D02*
X44792857Y-25849692D01*
X44792857Y-25849692D02*
X44821428Y-25821121D01*
X44821428Y-25821121D02*
X44864285Y-25806835D01*
X44864285Y-25806835D02*
X44892857Y-25806835D01*
X44892857Y-25806835D02*
X44935714Y-25821121D01*
X44935714Y-25821121D02*
X44950000Y-25835407D01*
X45221428Y-25806835D02*
X45078571Y-25806835D01*
X45078571Y-25806835D02*
X45064285Y-25949692D01*
X45064285Y-25949692D02*
X45078571Y-25935407D01*
X45078571Y-25935407D02*
X45107143Y-25921121D01*
X45107143Y-25921121D02*
X45178571Y-25921121D01*
X45178571Y-25921121D02*
X45207143Y-25935407D01*
X45207143Y-25935407D02*
X45221428Y-25949692D01*
X45221428Y-25949692D02*
X45235714Y-25978264D01*
X45235714Y-25978264D02*
X45235714Y-26049692D01*
X45235714Y-26049692D02*
X45221428Y-26078264D01*
X45221428Y-26078264D02*
X45207143Y-26092550D01*
X45207143Y-26092550D02*
X45178571Y-26106835D01*
X45178571Y-26106835D02*
X45107143Y-26106835D01*
X45107143Y-26106835D02*
X45078571Y-26092550D01*
X45078571Y-26092550D02*
X45064285Y-26078264D01*
X24771428Y-53123050D02*
X24814286Y-53137335D01*
X24814286Y-53137335D02*
X24885714Y-53137335D01*
X24885714Y-53137335D02*
X24914286Y-53123050D01*
X24914286Y-53123050D02*
X24928571Y-53108764D01*
X24928571Y-53108764D02*
X24942857Y-53080192D01*
X24942857Y-53080192D02*
X24942857Y-53051621D01*
X24942857Y-53051621D02*
X24928571Y-53023050D01*
X24928571Y-53023050D02*
X24914286Y-53008764D01*
X24914286Y-53008764D02*
X24885714Y-52994478D01*
X24885714Y-52994478D02*
X24828571Y-52980192D01*
X24828571Y-52980192D02*
X24800000Y-52965907D01*
X24800000Y-52965907D02*
X24785714Y-52951621D01*
X24785714Y-52951621D02*
X24771428Y-52923050D01*
X24771428Y-52923050D02*
X24771428Y-52894478D01*
X24771428Y-52894478D02*
X24785714Y-52865907D01*
X24785714Y-52865907D02*
X24800000Y-52851621D01*
X24800000Y-52851621D02*
X24828571Y-52837335D01*
X24828571Y-52837335D02*
X24900000Y-52837335D01*
X24900000Y-52837335D02*
X24942857Y-52851621D01*
X25057142Y-52865907D02*
X25071428Y-52851621D01*
X25071428Y-52851621D02*
X25100000Y-52837335D01*
X25100000Y-52837335D02*
X25171428Y-52837335D01*
X25171428Y-52837335D02*
X25200000Y-52851621D01*
X25200000Y-52851621D02*
X25214285Y-52865907D01*
X25214285Y-52865907D02*
X25228571Y-52894478D01*
X25228571Y-52894478D02*
X25228571Y-52923050D01*
X25228571Y-52923050D02*
X25214285Y-52965907D01*
X25214285Y-52965907D02*
X25042857Y-53137335D01*
X25042857Y-53137335D02*
X25228571Y-53137335D01*
X26707143Y-26606835D02*
X26607143Y-26463978D01*
X26535714Y-26606835D02*
X26535714Y-26306835D01*
X26535714Y-26306835D02*
X26650000Y-26306835D01*
X26650000Y-26306835D02*
X26678571Y-26321121D01*
X26678571Y-26321121D02*
X26692857Y-26335407D01*
X26692857Y-26335407D02*
X26707143Y-26363978D01*
X26707143Y-26363978D02*
X26707143Y-26406835D01*
X26707143Y-26406835D02*
X26692857Y-26435407D01*
X26692857Y-26435407D02*
X26678571Y-26449692D01*
X26678571Y-26449692D02*
X26650000Y-26463978D01*
X26650000Y-26463978D02*
X26535714Y-26463978D01*
X26978571Y-26306835D02*
X26835714Y-26306835D01*
X26835714Y-26306835D02*
X26821428Y-26449692D01*
X26821428Y-26449692D02*
X26835714Y-26435407D01*
X26835714Y-26435407D02*
X26864286Y-26421121D01*
X26864286Y-26421121D02*
X26935714Y-26421121D01*
X26935714Y-26421121D02*
X26964286Y-26435407D01*
X26964286Y-26435407D02*
X26978571Y-26449692D01*
X26978571Y-26449692D02*
X26992857Y-26478264D01*
X26992857Y-26478264D02*
X26992857Y-26549692D01*
X26992857Y-26549692D02*
X26978571Y-26578264D01*
X26978571Y-26578264D02*
X26964286Y-26592550D01*
X26964286Y-26592550D02*
X26935714Y-26606835D01*
X26935714Y-26606835D02*
X26864286Y-26606835D01*
X26864286Y-26606835D02*
X26835714Y-26592550D01*
X26835714Y-26592550D02*
X26821428Y-26578264D01*
X27178571Y-26306835D02*
X27207142Y-26306835D01*
X27207142Y-26306835D02*
X27235714Y-26321121D01*
X27235714Y-26321121D02*
X27250000Y-26335407D01*
X27250000Y-26335407D02*
X27264285Y-26363978D01*
X27264285Y-26363978D02*
X27278571Y-26421121D01*
X27278571Y-26421121D02*
X27278571Y-26492550D01*
X27278571Y-26492550D02*
X27264285Y-26549692D01*
X27264285Y-26549692D02*
X27250000Y-26578264D01*
X27250000Y-26578264D02*
X27235714Y-26592550D01*
X27235714Y-26592550D02*
X27207142Y-26606835D01*
X27207142Y-26606835D02*
X27178571Y-26606835D01*
X27178571Y-26606835D02*
X27150000Y-26592550D01*
X27150000Y-26592550D02*
X27135714Y-26578264D01*
X27135714Y-26578264D02*
X27121428Y-26549692D01*
X27121428Y-26549692D02*
X27107142Y-26492550D01*
X27107142Y-26492550D02*
X27107142Y-26421121D01*
X27107142Y-26421121D02*
X27121428Y-26363978D01*
X27121428Y-26363978D02*
X27135714Y-26335407D01*
X27135714Y-26335407D02*
X27150000Y-26321121D01*
X27150000Y-26321121D02*
X27178571Y-26306835D01*
X10612143Y-3403264D02*
X10597857Y-3417550D01*
X10597857Y-3417550D02*
X10555000Y-3431835D01*
X10555000Y-3431835D02*
X10526428Y-3431835D01*
X10526428Y-3431835D02*
X10483571Y-3417550D01*
X10483571Y-3417550D02*
X10455000Y-3388978D01*
X10455000Y-3388978D02*
X10440714Y-3360407D01*
X10440714Y-3360407D02*
X10426428Y-3303264D01*
X10426428Y-3303264D02*
X10426428Y-3260407D01*
X10426428Y-3260407D02*
X10440714Y-3203264D01*
X10440714Y-3203264D02*
X10455000Y-3174692D01*
X10455000Y-3174692D02*
X10483571Y-3146121D01*
X10483571Y-3146121D02*
X10526428Y-3131835D01*
X10526428Y-3131835D02*
X10555000Y-3131835D01*
X10555000Y-3131835D02*
X10597857Y-3146121D01*
X10597857Y-3146121D02*
X10612143Y-3160407D01*
X10712143Y-3131835D02*
X10897857Y-3131835D01*
X10897857Y-3131835D02*
X10797857Y-3246121D01*
X10797857Y-3246121D02*
X10840714Y-3246121D01*
X10840714Y-3246121D02*
X10869286Y-3260407D01*
X10869286Y-3260407D02*
X10883571Y-3274692D01*
X10883571Y-3274692D02*
X10897857Y-3303264D01*
X10897857Y-3303264D02*
X10897857Y-3374692D01*
X10897857Y-3374692D02*
X10883571Y-3403264D01*
X10883571Y-3403264D02*
X10869286Y-3417550D01*
X10869286Y-3417550D02*
X10840714Y-3431835D01*
X10840714Y-3431835D02*
X10755000Y-3431835D01*
X10755000Y-3431835D02*
X10726428Y-3417550D01*
X10726428Y-3417550D02*
X10712143Y-3403264D01*
X11155000Y-3231835D02*
X11155000Y-3431835D01*
X11083571Y-3117550D02*
X11012142Y-3331835D01*
X11012142Y-3331835D02*
X11197857Y-3331835D01*
X29507143Y-19668264D02*
X29492857Y-19682550D01*
X29492857Y-19682550D02*
X29450000Y-19696835D01*
X29450000Y-19696835D02*
X29421428Y-19696835D01*
X29421428Y-19696835D02*
X29378571Y-19682550D01*
X29378571Y-19682550D02*
X29350000Y-19653978D01*
X29350000Y-19653978D02*
X29335714Y-19625407D01*
X29335714Y-19625407D02*
X29321428Y-19568264D01*
X29321428Y-19568264D02*
X29321428Y-19525407D01*
X29321428Y-19525407D02*
X29335714Y-19468264D01*
X29335714Y-19468264D02*
X29350000Y-19439692D01*
X29350000Y-19439692D02*
X29378571Y-19411121D01*
X29378571Y-19411121D02*
X29421428Y-19396835D01*
X29421428Y-19396835D02*
X29450000Y-19396835D01*
X29450000Y-19396835D02*
X29492857Y-19411121D01*
X29492857Y-19411121D02*
X29507143Y-19425407D01*
X29621428Y-19425407D02*
X29635714Y-19411121D01*
X29635714Y-19411121D02*
X29664286Y-19396835D01*
X29664286Y-19396835D02*
X29735714Y-19396835D01*
X29735714Y-19396835D02*
X29764286Y-19411121D01*
X29764286Y-19411121D02*
X29778571Y-19425407D01*
X29778571Y-19425407D02*
X29792857Y-19453978D01*
X29792857Y-19453978D02*
X29792857Y-19482550D01*
X29792857Y-19482550D02*
X29778571Y-19525407D01*
X29778571Y-19525407D02*
X29607143Y-19696835D01*
X29607143Y-19696835D02*
X29792857Y-19696835D01*
X30050000Y-19396835D02*
X29992857Y-19396835D01*
X29992857Y-19396835D02*
X29964285Y-19411121D01*
X29964285Y-19411121D02*
X29950000Y-19425407D01*
X29950000Y-19425407D02*
X29921428Y-19468264D01*
X29921428Y-19468264D02*
X29907142Y-19525407D01*
X29907142Y-19525407D02*
X29907142Y-19639692D01*
X29907142Y-19639692D02*
X29921428Y-19668264D01*
X29921428Y-19668264D02*
X29935714Y-19682550D01*
X29935714Y-19682550D02*
X29964285Y-19696835D01*
X29964285Y-19696835D02*
X30021428Y-19696835D01*
X30021428Y-19696835D02*
X30050000Y-19682550D01*
X30050000Y-19682550D02*
X30064285Y-19668264D01*
X30064285Y-19668264D02*
X30078571Y-19639692D01*
X30078571Y-19639692D02*
X30078571Y-19568264D01*
X30078571Y-19568264D02*
X30064285Y-19539692D01*
X30064285Y-19539692D02*
X30050000Y-19525407D01*
X30050000Y-19525407D02*
X30021428Y-19511121D01*
X30021428Y-19511121D02*
X29964285Y-19511121D01*
X29964285Y-19511121D02*
X29935714Y-19525407D01*
X29935714Y-19525407D02*
X29921428Y-19539692D01*
X29921428Y-19539692D02*
X29907142Y-19568264D01*
X25381835Y-26599999D02*
X25596121Y-26599999D01*
X25596121Y-26599999D02*
X25638978Y-26614284D01*
X25638978Y-26614284D02*
X25667550Y-26642856D01*
X25667550Y-26642856D02*
X25681835Y-26685713D01*
X25681835Y-26685713D02*
X25681835Y-26714284D01*
X25681835Y-26299999D02*
X25681835Y-26471428D01*
X25681835Y-26385713D02*
X25381835Y-26385713D01*
X25381835Y-26385713D02*
X25424692Y-26414285D01*
X25424692Y-26414285D02*
X25453264Y-26442856D01*
X25453264Y-26442856D02*
X25467550Y-26471428D01*
X41200000Y-22496835D02*
X41200000Y-22711121D01*
X41200000Y-22711121D02*
X41185715Y-22753978D01*
X41185715Y-22753978D02*
X41157143Y-22782550D01*
X41157143Y-22782550D02*
X41114286Y-22796835D01*
X41114286Y-22796835D02*
X41085715Y-22796835D01*
X41328571Y-22525407D02*
X41342857Y-22511121D01*
X41342857Y-22511121D02*
X41371429Y-22496835D01*
X41371429Y-22496835D02*
X41442857Y-22496835D01*
X41442857Y-22496835D02*
X41471429Y-22511121D01*
X41471429Y-22511121D02*
X41485714Y-22525407D01*
X41485714Y-22525407D02*
X41500000Y-22553978D01*
X41500000Y-22553978D02*
X41500000Y-22582550D01*
X41500000Y-22582550D02*
X41485714Y-22625407D01*
X41485714Y-22625407D02*
X41314286Y-22796835D01*
X41314286Y-22796835D02*
X41500000Y-22796835D01*
X44950000Y-20078264D02*
X44935714Y-20092550D01*
X44935714Y-20092550D02*
X44892857Y-20106835D01*
X44892857Y-20106835D02*
X44864285Y-20106835D01*
X44864285Y-20106835D02*
X44821428Y-20092550D01*
X44821428Y-20092550D02*
X44792857Y-20063978D01*
X44792857Y-20063978D02*
X44778571Y-20035407D01*
X44778571Y-20035407D02*
X44764285Y-19978264D01*
X44764285Y-19978264D02*
X44764285Y-19935407D01*
X44764285Y-19935407D02*
X44778571Y-19878264D01*
X44778571Y-19878264D02*
X44792857Y-19849692D01*
X44792857Y-19849692D02*
X44821428Y-19821121D01*
X44821428Y-19821121D02*
X44864285Y-19806835D01*
X44864285Y-19806835D02*
X44892857Y-19806835D01*
X44892857Y-19806835D02*
X44935714Y-19821121D01*
X44935714Y-19821121D02*
X44950000Y-19835407D01*
X45207143Y-19806835D02*
X45150000Y-19806835D01*
X45150000Y-19806835D02*
X45121428Y-19821121D01*
X45121428Y-19821121D02*
X45107143Y-19835407D01*
X45107143Y-19835407D02*
X45078571Y-19878264D01*
X45078571Y-19878264D02*
X45064285Y-19935407D01*
X45064285Y-19935407D02*
X45064285Y-20049692D01*
X45064285Y-20049692D02*
X45078571Y-20078264D01*
X45078571Y-20078264D02*
X45092857Y-20092550D01*
X45092857Y-20092550D02*
X45121428Y-20106835D01*
X45121428Y-20106835D02*
X45178571Y-20106835D01*
X45178571Y-20106835D02*
X45207143Y-20092550D01*
X45207143Y-20092550D02*
X45221428Y-20078264D01*
X45221428Y-20078264D02*
X45235714Y-20049692D01*
X45235714Y-20049692D02*
X45235714Y-19978264D01*
X45235714Y-19978264D02*
X45221428Y-19949692D01*
X45221428Y-19949692D02*
X45207143Y-19935407D01*
X45207143Y-19935407D02*
X45178571Y-19921121D01*
X45178571Y-19921121D02*
X45121428Y-19921121D01*
X45121428Y-19921121D02*
X45092857Y-19935407D01*
X45092857Y-19935407D02*
X45078571Y-19949692D01*
X45078571Y-19949692D02*
X45064285Y-19978264D01*
X29236835Y-24641071D02*
X29479692Y-24641071D01*
X29479692Y-24641071D02*
X29508264Y-24626785D01*
X29508264Y-24626785D02*
X29522550Y-24612500D01*
X29522550Y-24612500D02*
X29536835Y-24583928D01*
X29536835Y-24583928D02*
X29536835Y-24526785D01*
X29536835Y-24526785D02*
X29522550Y-24498214D01*
X29522550Y-24498214D02*
X29508264Y-24483928D01*
X29508264Y-24483928D02*
X29479692Y-24469642D01*
X29479692Y-24469642D02*
X29236835Y-24469642D01*
X29536835Y-24169642D02*
X29536835Y-24341071D01*
X29536835Y-24255356D02*
X29236835Y-24255356D01*
X29236835Y-24255356D02*
X29279692Y-24283928D01*
X29279692Y-24283928D02*
X29308264Y-24312499D01*
X29308264Y-24312499D02*
X29322550Y-24341071D01*
X41407143Y-22006835D02*
X41307143Y-21863978D01*
X41235714Y-22006835D02*
X41235714Y-21706835D01*
X41235714Y-21706835D02*
X41350000Y-21706835D01*
X41350000Y-21706835D02*
X41378571Y-21721121D01*
X41378571Y-21721121D02*
X41392857Y-21735407D01*
X41392857Y-21735407D02*
X41407143Y-21763978D01*
X41407143Y-21763978D02*
X41407143Y-21806835D01*
X41407143Y-21806835D02*
X41392857Y-21835407D01*
X41392857Y-21835407D02*
X41378571Y-21849692D01*
X41378571Y-21849692D02*
X41350000Y-21863978D01*
X41350000Y-21863978D02*
X41235714Y-21863978D01*
X41664286Y-21806835D02*
X41664286Y-22006835D01*
X41592857Y-21692550D02*
X41521428Y-21906835D01*
X41521428Y-21906835D02*
X41707143Y-21906835D01*
X41835714Y-22006835D02*
X41892857Y-22006835D01*
X41892857Y-22006835D02*
X41921428Y-21992550D01*
X41921428Y-21992550D02*
X41935714Y-21978264D01*
X41935714Y-21978264D02*
X41964285Y-21935407D01*
X41964285Y-21935407D02*
X41978571Y-21878264D01*
X41978571Y-21878264D02*
X41978571Y-21763978D01*
X41978571Y-21763978D02*
X41964285Y-21735407D01*
X41964285Y-21735407D02*
X41950000Y-21721121D01*
X41950000Y-21721121D02*
X41921428Y-21706835D01*
X41921428Y-21706835D02*
X41864285Y-21706835D01*
X41864285Y-21706835D02*
X41835714Y-21721121D01*
X41835714Y-21721121D02*
X41821428Y-21735407D01*
X41821428Y-21735407D02*
X41807142Y-21763978D01*
X41807142Y-21763978D02*
X41807142Y-21835407D01*
X41807142Y-21835407D02*
X41821428Y-21863978D01*
X41821428Y-21863978D02*
X41835714Y-21878264D01*
X41835714Y-21878264D02*
X41864285Y-21892550D01*
X41864285Y-21892550D02*
X41921428Y-21892550D01*
X41921428Y-21892550D02*
X41950000Y-21878264D01*
X41950000Y-21878264D02*
X41964285Y-21863978D01*
X41964285Y-21863978D02*
X41978571Y-21835407D01*
X27386835Y-22449999D02*
X27386835Y-22592856D01*
X27386835Y-22592856D02*
X27086835Y-22592856D01*
X27386835Y-22192856D02*
X27386835Y-22364285D01*
X27386835Y-22278570D02*
X27086835Y-22278570D01*
X27086835Y-22278570D02*
X27129692Y-22307142D01*
X27129692Y-22307142D02*
X27158264Y-22335713D01*
X27158264Y-22335713D02*
X27172550Y-22364285D01*
X7742143Y-1433264D02*
X7727857Y-1447550D01*
X7727857Y-1447550D02*
X7685000Y-1461835D01*
X7685000Y-1461835D02*
X7656428Y-1461835D01*
X7656428Y-1461835D02*
X7613571Y-1447550D01*
X7613571Y-1447550D02*
X7585000Y-1418978D01*
X7585000Y-1418978D02*
X7570714Y-1390407D01*
X7570714Y-1390407D02*
X7556428Y-1333264D01*
X7556428Y-1333264D02*
X7556428Y-1290407D01*
X7556428Y-1290407D02*
X7570714Y-1233264D01*
X7570714Y-1233264D02*
X7585000Y-1204692D01*
X7585000Y-1204692D02*
X7613571Y-1176121D01*
X7613571Y-1176121D02*
X7656428Y-1161835D01*
X7656428Y-1161835D02*
X7685000Y-1161835D01*
X7685000Y-1161835D02*
X7727857Y-1176121D01*
X7727857Y-1176121D02*
X7742143Y-1190407D01*
X7856428Y-1190407D02*
X7870714Y-1176121D01*
X7870714Y-1176121D02*
X7899286Y-1161835D01*
X7899286Y-1161835D02*
X7970714Y-1161835D01*
X7970714Y-1161835D02*
X7999286Y-1176121D01*
X7999286Y-1176121D02*
X8013571Y-1190407D01*
X8013571Y-1190407D02*
X8027857Y-1218978D01*
X8027857Y-1218978D02*
X8027857Y-1247550D01*
X8027857Y-1247550D02*
X8013571Y-1290407D01*
X8013571Y-1290407D02*
X7842143Y-1461835D01*
X7842143Y-1461835D02*
X8027857Y-1461835D01*
X8285000Y-1261835D02*
X8285000Y-1461835D01*
X8213571Y-1147550D02*
X8142142Y-1361835D01*
X8142142Y-1361835D02*
X8327857Y-1361835D01*
%TO.C,R52*%
D12*
X26746359Y-27120000D02*
X27053641Y-27120000D01*
X26746359Y-27880000D02*
X27053641Y-27880000D01*
%TO.C,R53*%
X27053641Y-23820000D02*
X26746359Y-23820000D01*
X27053641Y-24580000D02*
X26746359Y-24580000D01*
%TO.C,USBDEV1*%
X20040000Y-32250000D02*
X26160000Y-32250000D01*
X20040000Y-35950000D02*
X20040000Y-32250000D01*
X26160000Y-32250000D02*
X26160000Y-35950000D01*
X26160000Y-35950000D02*
X20040000Y-35950000D01*
%TO.C,C39*%
X37540000Y-19092164D02*
X37540000Y-19307836D01*
X38260000Y-19092164D02*
X38260000Y-19307836D01*
%TO.C,S4*%
D13*
X73500000Y-32020000D02*
X76000000Y-29520000D01*
X73500000Y-35520000D02*
X73500000Y-32020000D01*
X73500000Y-37520000D02*
X73500000Y-38520000D01*
X73500000Y-40520000D02*
X73500000Y-44020000D01*
X73500000Y-44020000D02*
X76000000Y-46520000D01*
X76000000Y-29520000D02*
X79500000Y-29520000D01*
X76000000Y-46520000D02*
X79500000Y-46520000D01*
X81500000Y-46520000D02*
X88000000Y-46520000D01*
X84500000Y-29520000D02*
X88000000Y-29520000D01*
X88000000Y-29520000D02*
X90500000Y-32020000D01*
X88000000Y-46520000D02*
X90500000Y-44020000D01*
X90500000Y-32020000D02*
X90500000Y-35520000D01*
X90500000Y-37520000D02*
X90500000Y-38520000D01*
X90500000Y-44020000D02*
X90500000Y-40520000D01*
%TO.C,C40*%
D12*
X29140000Y-25907836D02*
X29140000Y-25692164D01*
X29860000Y-25907836D02*
X29860000Y-25692164D01*
%TO.C,C38*%
X30740000Y-29807836D02*
X30740000Y-29592164D01*
X31460000Y-29807836D02*
X31460000Y-29592164D01*
%TO.C,C41*%
X34140000Y-19092164D02*
X34140000Y-19307836D01*
X34860000Y-19092164D02*
X34860000Y-19307836D01*
%TO.C,C29*%
X39707836Y-25640000D02*
X39492164Y-25640000D01*
X39707836Y-26360000D02*
X39492164Y-26360000D01*
%TO.C,R54*%
X19862742Y-37777500D02*
X20337258Y-37777500D01*
X19862742Y-38822500D02*
X20337258Y-38822500D01*
%TO.C,Y1*%
X43290000Y-22340000D02*
X43290000Y-26460000D01*
X46710000Y-22340000D02*
X43290000Y-22340000D01*
%TO.C,C25*%
X39492164Y-24240000D02*
X39707836Y-24240000D01*
X39492164Y-24960000D02*
X39707836Y-24960000D01*
%TO.C,C35*%
X10697164Y-6065000D02*
X10912836Y-6065000D01*
X10697164Y-6785000D02*
X10912836Y-6785000D01*
%TO.C,U2*%
X25227500Y-16990000D02*
X27047500Y-16990000D01*
X25227500Y-17040000D02*
X25227500Y-16990000D01*
X25227500Y-20110000D02*
X25227500Y-20060000D01*
X27047500Y-16990000D02*
X27047500Y-17040000D01*
X27047500Y-18160000D02*
X27047500Y-18940000D01*
X27047500Y-20060000D02*
X27047500Y-20110000D01*
X27047500Y-20110000D02*
X25227500Y-20110000D01*
X24687500Y-17040000D02*
X24447500Y-16710000D01*
X24927500Y-16710000D01*
X24687500Y-17040000D01*
G36*
X24687500Y-17040000D02*
G01*
X24447500Y-16710000D01*
X24927500Y-16710000D01*
X24687500Y-17040000D01*
G37*
%TO.C,C28*%
X33140000Y-19092164D02*
X33140000Y-19307836D01*
X33860000Y-19092164D02*
X33860000Y-19307836D01*
%TO.C,S1*%
D13*
X44500000Y-32020000D02*
X47000000Y-29520000D01*
X44500000Y-35520000D02*
X44500000Y-32020000D01*
X44500000Y-37520000D02*
X44500000Y-38520000D01*
X44500000Y-40520000D02*
X44500000Y-44020000D01*
X44500000Y-44020000D02*
X47000000Y-46520000D01*
X47000000Y-29520000D02*
X50500000Y-29520000D01*
X47000000Y-46520000D02*
X50500000Y-46520000D01*
X52500000Y-46520000D02*
X59000000Y-46520000D01*
X55500000Y-29520000D02*
X59000000Y-29520000D01*
X59000000Y-29520000D02*
X61500000Y-32020000D01*
X59000000Y-46520000D02*
X61500000Y-44020000D01*
X61500000Y-32020000D02*
X61500000Y-35520000D01*
X61500000Y-37520000D02*
X61500000Y-38520000D01*
X61500000Y-44020000D02*
X61500000Y-40520000D01*
%TO.C,R51*%
D12*
X26746359Y-26020000D02*
X27053641Y-26020000D01*
X26746359Y-26780000D02*
X27053641Y-26780000D01*
%TO.C,C37*%
X26940000Y-21792164D02*
X26940000Y-22007836D01*
X27660000Y-21792164D02*
X27660000Y-22007836D01*
%TO.C,C27*%
X33040000Y-29807836D02*
X33040000Y-29592164D01*
X33760000Y-29807836D02*
X33760000Y-29592164D01*
%TO.C,C36*%
X14992164Y-7740000D02*
X15207836Y-7740000D01*
X14992164Y-8460000D02*
X15207836Y-8460000D01*
%TO.C,C2*%
X-562836Y75000D02*
X-347164Y75000D01*
X-562836Y-645000D02*
X-347164Y-645000D01*
%TO.C,RESET1*%
X30740000Y-13250000D02*
X36860000Y-13250000D01*
X30740000Y-16950000D02*
X30740000Y-13250000D01*
X36860000Y-13250000D02*
X36860000Y-16950000D01*
X36860000Y-16950000D02*
X30740000Y-16950000D01*
%TO.C,R23*%
X30946359Y-19220000D02*
X31253641Y-19220000D01*
X30946359Y-19980000D02*
X31253641Y-19980000D01*
%TO.C,R29*%
X27337258Y-14577500D02*
X26862742Y-14577500D01*
X27337258Y-15622500D02*
X26862742Y-15622500D01*
%TO.C,S3*%
D13*
X104150000Y-45762500D02*
X115850000Y-45762500D01*
X104150000Y-50762500D02*
X104150000Y-45762500D01*
X104150000Y-56762500D02*
X104150000Y-60262500D01*
X104150000Y-60262500D02*
X115850000Y-60262500D01*
D14*
X107400000Y-62462500D02*
X107400000Y-62462500D01*
X107600000Y-62462500D02*
X107600000Y-62462500D01*
D13*
X115850000Y-45762500D02*
X115850000Y-50762500D01*
X115850000Y-60262500D02*
X115850000Y-56762500D01*
D14*
X107400000Y-62462500D02*
G75*
G02*
X107600000Y-62462500I100000J0D01*
G01*
X107600000Y-62462500D02*
G75*
G02*
X107400000Y-62462500I-100000J0D01*
G01*
%TO.C,C5*%
D12*
X44859420Y-26890000D02*
X45140580Y-26890000D01*
X44859420Y-27910000D02*
X45140580Y-27910000D01*
%TO.C,S2*%
D13*
X19150000Y-45762500D02*
X30850000Y-45762500D01*
X19150000Y-50762500D02*
X19150000Y-45762500D01*
X19150000Y-56762500D02*
X19150000Y-60262500D01*
X19150000Y-60262500D02*
X30850000Y-60262500D01*
D14*
X22400000Y-62462500D02*
X22400000Y-62462500D01*
X22600000Y-62462500D02*
X22600000Y-62462500D01*
D13*
X30850000Y-45762500D02*
X30850000Y-50762500D01*
X30850000Y-60262500D02*
X30850000Y-56762500D01*
D14*
X22400000Y-62462500D02*
G75*
G02*
X22600000Y-62462500I100000J0D01*
G01*
X22600000Y-62462500D02*
G75*
G02*
X22400000Y-62462500I-100000J0D01*
G01*
%TO.C,R50*%
D12*
X27053641Y-24920000D02*
X26746359Y-24920000D01*
X27053641Y-25680000D02*
X26746359Y-25680000D01*
%TO.C,C34*%
X10697164Y-4095000D02*
X10912836Y-4095000D01*
X10697164Y-4815000D02*
X10912836Y-4815000D01*
%TO.C,C26*%
X29807836Y-18040000D02*
X29592164Y-18040000D01*
X29807836Y-18760000D02*
X29592164Y-18760000D01*
%TO.C,J1*%
X16000000Y-21800000D02*
X16000000Y-31200000D01*
X17900000Y-21800000D02*
X16000000Y-21800000D01*
X17900000Y-31200000D02*
X16000000Y-31200000D01*
X21800000Y-21800000D02*
X19800000Y-21800000D01*
X21800000Y-31200000D02*
X19800000Y-31200000D01*
%TO.C,J2*%
X39920000Y-19010000D02*
X39920000Y-13820000D01*
X42680000Y-13820000D02*
X39920000Y-13820000D01*
X42680000Y-19010000D02*
X39920000Y-19010000D01*
X42680000Y-19010000D02*
X42680000Y-13820000D01*
X42680000Y-20280000D02*
X42680000Y-21660000D01*
X42680000Y-21660000D02*
X41300000Y-21660000D01*
%TO.C,C6*%
X44859420Y-20890000D02*
X45140580Y-20890000D01*
X44859420Y-21910000D02*
X45140580Y-21910000D01*
%TO.C,U1*%
X30590000Y-20802500D02*
X31040000Y-20802500D01*
X30590000Y-21252500D02*
X30590000Y-20802500D01*
X30590000Y-28022500D02*
X30590000Y-27572500D01*
X31040000Y-28022500D02*
X30590000Y-28022500D01*
X37360000Y-20802500D02*
X37810000Y-20802500D01*
X37810000Y-20802500D02*
X37810000Y-21252500D01*
X37810000Y-27572500D02*
X37810000Y-28022500D01*
X37810000Y-28022500D02*
X37360000Y-28022500D01*
X31400000Y-28522500D02*
X31640000Y-28852500D01*
X31160000Y-28852500D01*
X31400000Y-28522500D01*
G36*
X31640000Y-28852500D02*
G01*
X31160000Y-28852500D01*
X31400000Y-28522500D01*
X31640000Y-28852500D01*
G37*
%TO.C,R49*%
X41362742Y-22777500D02*
X41837258Y-22777500D01*
X41362742Y-23822500D02*
X41837258Y-23822500D01*
%TO.C,L1*%
X28165000Y-22627064D02*
X28165000Y-22172936D01*
X29635000Y-22627064D02*
X29635000Y-22172936D01*
%TO.C,C24*%
X7827164Y-2125000D02*
X8042836Y-2125000D01*
X7827164Y-2845000D02*
X8042836Y-2845000D01*
%TD*%
%LPC*%
D15*
%TO.C,R52*%
X26390000Y-27500000D03*
X27410000Y-27500000D03*
%TD*%
D16*
%TO.C,R53*%
X27410000Y-24200000D03*
X26390000Y-24200000D03*
%TD*%
D17*
%TO.C,USBDEV1*%
X27000000Y-34100000D03*
X19200000Y-34100000D03*
%TD*%
D18*
%TO.C,C39*%
X37900000Y-18720000D03*
X37900000Y-19680000D03*
%TD*%
D19*
%TO.C,S4*%
X80500000Y-45820000D03*
X83000000Y-45000000D03*
X88860000Y-41770000D03*
X89800000Y-39520000D03*
X89800000Y-36520000D03*
X83500000Y-30220000D03*
X81000000Y-32240000D03*
X80500000Y-30220000D03*
X74200000Y-36520000D03*
X74200000Y-39520000D03*
X78200000Y-39520000D03*
%TD*%
D20*
%TO.C,C40*%
X29500000Y-26280000D03*
X29500000Y-25320000D03*
%TD*%
%TO.C,C38*%
X31100000Y-30180000D03*
X31100000Y-29220000D03*
%TD*%
D18*
%TO.C,C41*%
X34500000Y-18720000D03*
X34500000Y-19680000D03*
%TD*%
D21*
%TO.C,C29*%
X40080000Y-26000000D03*
X39120000Y-26000000D03*
%TD*%
D22*
%TO.C,R54*%
X19275000Y-38300000D03*
X20925000Y-38300000D03*
%TD*%
D23*
%TO.C,Y1*%
X44150000Y-23300000D03*
X44150000Y-25500000D03*
X45850000Y-25500000D03*
X45850000Y-23300000D03*
%TD*%
D24*
%TO.C,C25*%
X39120000Y-24600000D03*
X40080000Y-24600000D03*
%TD*%
%TO.C,C35*%
X10325000Y-6425000D03*
X11285000Y-6425000D03*
%TD*%
D25*
%TO.C,U2*%
X25000000Y-17600000D03*
X25000000Y-18550000D03*
X25000000Y-19500000D03*
X27275000Y-19500000D03*
X27275000Y-17600000D03*
%TD*%
D18*
%TO.C,C28*%
X33500000Y-18720000D03*
X33500000Y-19680000D03*
%TD*%
D19*
%TO.C,S1*%
X51500000Y-45820000D03*
X54000000Y-45000000D03*
X59860000Y-41770000D03*
X60800000Y-39520000D03*
X60800000Y-36520000D03*
X54500000Y-30220000D03*
X52000000Y-32240000D03*
X51500000Y-30220000D03*
X45200000Y-36520000D03*
X45200000Y-39520000D03*
X49200000Y-39520000D03*
%TD*%
D15*
%TO.C,R51*%
X26390000Y-26400000D03*
X27410000Y-26400000D03*
%TD*%
D18*
%TO.C,C37*%
X27300000Y-21420000D03*
X27300000Y-22380000D03*
%TD*%
D20*
%TO.C,C27*%
X33400000Y-30180000D03*
X33400000Y-29220000D03*
%TD*%
D24*
%TO.C,C36*%
X14620000Y-8100000D03*
X15580000Y-8100000D03*
%TD*%
%TO.C,C2*%
X-935000Y-285000D03*
X25000Y-285000D03*
%TD*%
D17*
%TO.C,RESET1*%
X37700000Y-15100000D03*
X29900000Y-15100000D03*
%TD*%
D15*
%TO.C,R23*%
X30590000Y-19600000D03*
X31610000Y-19600000D03*
%TD*%
D26*
%TO.C,R29*%
X27925000Y-15100000D03*
X26275000Y-15100000D03*
%TD*%
D27*
%TO.C,S3*%
X107500000Y-61262500D03*
X107460000Y-44262500D03*
X112500000Y-61262500D03*
X112540000Y-44262500D03*
X110000000Y-61262500D03*
X110000000Y-44262500D03*
X107500000Y-46762500D03*
X112500000Y-46762500D03*
D28*
X104500000Y-53762500D03*
X115500000Y-53762500D03*
%TD*%
D29*
%TO.C,C5*%
X44225000Y-27400000D03*
X45775000Y-27400000D03*
%TD*%
D27*
%TO.C,S2*%
X22500000Y-61262500D03*
X22460000Y-44262500D03*
X27500000Y-61262500D03*
X27540000Y-44262500D03*
X25000000Y-61262500D03*
X25000000Y-44262500D03*
X22500000Y-46762500D03*
X27500000Y-46762500D03*
D28*
X19500000Y-53762500D03*
X30500000Y-53762500D03*
%TD*%
D16*
%TO.C,R50*%
X27410000Y-25300000D03*
X26390000Y-25300000D03*
%TD*%
D24*
%TO.C,C34*%
X10325000Y-4455000D03*
X11285000Y-4455000D03*
%TD*%
D21*
%TO.C,C26*%
X30180000Y-18400000D03*
X29220000Y-18400000D03*
%TD*%
D30*
%TO.C,J1*%
X22500000Y-23610000D03*
X22500000Y-29390000D03*
D31*
X23945000Y-23250000D03*
X23945000Y-24050000D03*
D32*
X23945000Y-25250000D03*
X23945000Y-26250000D03*
X23945000Y-26750000D03*
X23945000Y-27750000D03*
D31*
X23945000Y-28950000D03*
X23945000Y-29750000D03*
X23945000Y-29750000D03*
X23945000Y-28950000D03*
D32*
X23945000Y-28250000D03*
X23945000Y-27250000D03*
X23945000Y-25750000D03*
X23945000Y-24750000D03*
D31*
X23945000Y-24050000D03*
X23945000Y-23250000D03*
D33*
X23030000Y-22180000D03*
D34*
X18850000Y-22180000D03*
D33*
X23030000Y-30820000D03*
D34*
X18850000Y-30820000D03*
%TD*%
D35*
%TO.C,J2*%
X41300000Y-20280000D03*
D36*
X41300000Y-17740000D03*
X41300000Y-15200000D03*
%TD*%
D29*
%TO.C,C6*%
X44225000Y-21400000D03*
X45775000Y-21400000D03*
%TD*%
D37*
%TO.C,U1*%
X31400000Y-27862500D03*
X31800000Y-27862500D03*
X32200000Y-27862500D03*
X32600000Y-27862500D03*
X33000000Y-27862500D03*
X33400000Y-27862500D03*
X33800000Y-27862500D03*
X34200000Y-27862500D03*
X34600000Y-27862500D03*
X35000000Y-27862500D03*
X35400000Y-27862500D03*
X35800000Y-27862500D03*
X36200000Y-27862500D03*
X36600000Y-27862500D03*
X37000000Y-27862500D03*
D38*
X37650000Y-27212500D03*
X37650000Y-26812500D03*
X37650000Y-26412500D03*
X37650000Y-26012500D03*
X37650000Y-25612500D03*
X37650000Y-25212500D03*
X37650000Y-24812500D03*
X37650000Y-24412500D03*
X37650000Y-24012500D03*
X37650000Y-23612500D03*
X37650000Y-23212500D03*
X37650000Y-22812500D03*
X37650000Y-22412500D03*
X37650000Y-22012500D03*
X37650000Y-21612500D03*
D37*
X37000000Y-20962500D03*
X36600000Y-20962500D03*
X36200000Y-20962500D03*
X35800000Y-20962500D03*
X35400000Y-20962500D03*
X35000000Y-20962500D03*
X34600000Y-20962500D03*
X34200000Y-20962500D03*
X33800000Y-20962500D03*
X33400000Y-20962500D03*
X33000000Y-20962500D03*
X32600000Y-20962500D03*
X32200000Y-20962500D03*
X31800000Y-20962500D03*
X31400000Y-20962500D03*
D38*
X30750000Y-21612500D03*
X30750000Y-22012500D03*
X30750000Y-22412500D03*
X30750000Y-22812500D03*
X30750000Y-23212500D03*
X30750000Y-23612500D03*
X30750000Y-24012500D03*
X30750000Y-24412500D03*
X30750000Y-24812500D03*
X30750000Y-25212500D03*
X30750000Y-25612500D03*
X30750000Y-26012500D03*
X30750000Y-26412500D03*
X30750000Y-26812500D03*
X30750000Y-27212500D03*
D39*
X34200000Y-24412500D03*
%TD*%
D22*
%TO.C,R49*%
X40775000Y-23300000D03*
X42425000Y-23300000D03*
%TD*%
D40*
%TO.C,L1*%
X28900000Y-23312500D03*
X28900000Y-21487500D03*
%TD*%
D24*
%TO.C,C24*%
X7455000Y-2485000D03*
X8415000Y-2485000D03*
%TD*%
%LPD*%
M02*
